<?xml version="1.0" standalone="no"?>
<!DOCTYPE svg PUBLIC "-//W3C//DTD SVG 1.1//EN" "http://www.w3.org/Graphics/SVG/1.1/DTD/svg11.dtd" >
<svg>
<metadata>
Created by FontForge 20090622 at Fri Feb  9 16:28:21 2018
 By deploy user
Copyright (c) 2014 by Jan Henrik Arnold. All rights reserved.
</metadata>
<defs>
<font id="TimesNow-SemiLight" horiz-adv-x="500" >
  <font-face 
    font-family="JHA Times Now SemiLight"
    font-weight="350"
    font-stretch="normal"
    units-per-em="1000"
    panose-1="2 0 5 3 7 4 5 6 4 3"
    ascent="725"
    descent="-275"
    x-height="447"
    cap-height="662"
    bbox="-164 -217 1009 878"
    underline-thickness="50"
    underline-position="-50"
    unicode-range="U+000D-U+FB02"
  />
<missing-glyph horiz-adv-x="433" 
d="M74 662h285l-143 -282zM385 49l-143 281l143 282v-563zM359 0h-285l142 282zM48 49v563l143 -282z" />
    <glyph glyph-name="fi" unicode="fi" horiz-adv-x="556" 
d="M190 447h232q12 0 21 1t12 1h13v-367q0 -41 16.5 -53.5t54.5 -13.5v-15h-210v15q39 1 55 14t16 53v264q0 45 -12 59.5t-48 14.5h-150v-293q0 -74 14.5 -92.5t68.5 -19.5v-15h-236v15q57 1 71 19t14 93v293h-87v27h87v38q0 88 55.5 148.5t143.5 60.5q61 0 99.5 -25.5
t38.5 -58.5q0 -15 -9.5 -24.5t-24.5 -9.5q-17 0 -32.5 13.5t-25 30t-28 30t-42.5 13.5q-50 0 -78.5 -40t-28.5 -116v-60z" />
    <glyph glyph-name="fl" unicode="fl" horiz-adv-x="556" 
d="M468 694v-614q0 -41 16 -53.5t55 -13.5v-13h-209v13q39 1 54.5 13.5t15.5 53.5v340h-211v-295q0 -75 14.5 -93.5t68.5 -18.5v-13h-236v13q56 0 70.5 18.5t14.5 93.5v295h-87v27h87q-3 247 171 247q21 0 48.5 -10.5t44.5 -25.5l68 36h15zM400 447v140h-2q-8 -7 -19 -7
q-17 0 -31 13t-23 28t-25.5 28t-37.5 13q-38 0 -55.5 -26t-17.5 -93v-96h211z" />
    <glyph glyph-name=".notdef" horiz-adv-x="433" 
d="M74 662h285l-143 -282zM385 49l-143 281l143 282v-563zM359 0h-285l142 282zM48 49v563l143 -282z" />
    <glyph glyph-name=".null" horiz-adv-x="0" 
 />
    <glyph glyph-name=".null" horiz-adv-x="0" 
 />
    <glyph glyph-name="nonmarkingreturn" horiz-adv-x="333" 
 />
    <glyph glyph-name="CR" unicode="&#xd;" horiz-adv-x="250" 
 />
    <glyph glyph-name="space" unicode=" " horiz-adv-x="250" 
 />
    <glyph glyph-name="exclam" unicode="!" horiz-adv-x="333" 
d="M174 175h-16q-38 394 -38 448q0 23 12 38.5t34 15.5t34 -15t12 -39q0 -27 -38 -448zM166 -14q-21 0 -36 14.5t-15 35.5q0 20 15 34.5t36 14.5t36 -14.5t15 -34.5q0 -21 -15 -35.5t-36 -14.5z" />
    <glyph glyph-name="quotedbl" unicode="&#x22;" horiz-adv-x="408" 
d="M122 392h-16q-33 214 -33 235q0 50 41 50q42 0 42 -50q0 -13 -2.5 -34.5t-6 -43.5l-11.5 -69.5t-14 -87.5zM302 392h-16q-33 214 -33 235q0 50 41 50q42 0 42 -50q0 -13 -2.5 -34.5t-6 -43.5l-11.5 -69.5t-14 -87.5z" />
    <glyph glyph-name="numbersign" unicode="#" 
d="M58 -15l47 227h-83v33h90l35 173h-126v33h132l47 226h33l-46 -226h175l46 226h34l-47 -226h83v-33h-90l-34 -173h124v-33h-132l-46 -227h-34l47 227h-175l-47 -227h-33zM145 245h175l35 173h-174z" />
    <glyph glyph-name="dollar" unicode="$" 
d="M254 647v-260q115 -76 152.5 -120.5t37.5 -103.5q0 -74 -57.5 -124.5t-132.5 -52.5v-62h-26v62q-92 3 -176 39v138h19q3 -66 45 -108t112 -43v290q-99 59 -135 109.5t-36 102.5q0 69 50 111t121 48v45h26v-45q64 -1 163 -43v-146h-18q-11 149 -145 163zM254 286v-274
q53 8 87 42t34 84q0 40 -29.5 74.5t-91.5 73.5zM228 400v247q-49 -6 -76.5 -34t-27.5 -71q0 -80 104 -142z" />
    <glyph glyph-name="percent" unicode="%" horiz-adv-x="833" 
d="M175 676q60 0 97.5 -50t37.5 -129q0 -78 -39.5 -128.5t-95.5 -50.5t-95.5 50.5t-39.5 128.5q0 73 39 126t96 53zM176 655q-70 0 -70 -159q0 -157 68 -157q70 0 70 159q0 157 -68 157zM674 677l-473 -692h-35l473 692h35zM658 344q60 0 97.5 -50.5t37.5 -128.5
t-39.5 -128.5t-95.5 -50.5t-95.5 50.5t-39.5 128.5q0 73 39 126t96 53zM659 323q-70 0 -70 -159q0 -157 68 -157q70 0 70 159q0 157 -68 157z" />
    <glyph glyph-name="ampersand" unicode="&#x26;" horiz-adv-x="779" 
d="M732 131l15 -12q-13 -61 -53.5 -97.5t-100.5 -36.5q-66 0 -162 105q-118 -105 -221 -105q-71 0 -119 39.5t-48 107.5q0 135 205 241q-41 92 -41 145q0 70 46 114.5t114 44.5q57 0 93.5 -32.5t36.5 -87.5q0 -32 -14.5 -60t-42.5 -50.5t-51 -36t-57 -30.5q66 -127 134 -209
q92 113 92 183q0 25 -12.5 39.5t-33.5 15.5v16h201v-16q-37 -2 -60 -19t-49 -62q-58 -94 -120 -180q38 -45 73 -71t77 -26q37 0 63.5 23.5t34.5 56.5zM320 406q55 24 91 64t36 90q0 40 -20.5 64t-56.5 24q-39 0 -66 -27.5t-27 -68.5q0 -62 43 -146zM411 111q-65 75 -150 235
q-53 -27 -94 -75t-41 -98q0 -57 35.5 -96.5t91.5 -39.5q68 0 158 74z" />
    <glyph glyph-name="quotesingle" unicode="'" horiz-adv-x="180" 
d="M98 392h-16q-33 214 -33 235q0 50 41 50t41 -50q0 -21 -33 -235z" />
    <glyph glyph-name="parenleft" unicode="(" horiz-adv-x="333" 
d="M311 694v-18q-94 -54 -139.5 -169t-45.5 -268q0 -151 49 -268.5t136 -169.5v-17q-127 67 -194 184.5t-67 270.5q0 151 68 267.5t193 187.5z" />
    <glyph glyph-name="parenright" unicode=")" horiz-adv-x="333" 
d="M24 -216v17q88 53 136.5 171.5t48.5 266.5q0 152 -45 267.5t-140 169.5v18q125 -71 193 -188t68 -267q0 -152 -67.5 -269.5t-193.5 -185.5z" />
    <glyph glyph-name="asterisk" unicode="*" 
d="M234 492q-23 14 -67 24t-69 22.5t-25 38.5q0 12 9 20.5t21 8.5q23 0 45 -17.5t47.5 -43.5t47.5 -38q0 40 -13.5 82.5t-13.5 63.5q0 18 9 30t25 12t25 -12t9 -30q0 -23 -13.5 -64t-13.5 -82q23 11 69.5 55t71.5 44q12 0 21.5 -9t9.5 -21q0 -24 -28 -37.5t-72 -24.5
t-63 -22q21 -12 65.5 -22.5t70 -23.5t25.5 -40q0 -12 -8.5 -20.5t-20.5 -8.5q-24 0 -45.5 16.5t-47 43.5t-47.5 40q0 -39 13 -81t13 -64q0 -18 -9 -30t-25 -12t-25 12t-9 30q0 23 13.5 64.5t13.5 80.5q-27 -14 -52 -40t-44.5 -43t-43.5 -17q-12 0 -21 8t-9 20
q0 27 25.5 40.5t70 24t65.5 22.5z" />
    <glyph glyph-name="plus" unicode="+" horiz-adv-x="564" 
d="M265 69v248h-245v31h245v247h33v-247h247v-31h-247v-248h-33z" />
    <glyph glyph-name="comma" unicode="," horiz-adv-x="251" 
d="M59 -159v18q45 15 73 51t28 80q0 20 -14 20q-4 0 -15.5 -7t-22.5 -7q-19 0 -30.5 13t-11.5 32q0 21 15.5 36t36.5 15q32 0 51 -28t19 -65q0 -54 -37.5 -98.5t-91.5 -59.5z" />
    <glyph glyph-name="hyphen" unicode="-" horiz-adv-x="333" 
d="M40 259h253v-52h-253v52z" />
    <glyph glyph-name="period" unicode="." horiz-adv-x="250" 
d="M125 -15q-21 0 -36 15.5t-15 36.5q0 19 15.5 34t35.5 15t35 -14.5t15 -34.5q0 -21 -15 -36.5t-35 -15.5z" />
    <glyph glyph-name="slash" unicode="/" horiz-adv-x="278" 
d="M277 694l-240 -709h-34l240 709h34z" />
    <glyph glyph-name="zero" unicode="0" 
d="M250 676q88 0 147 -92.5t59 -252.5q0 -156 -59.5 -250.5t-146.5 -94.5q-89 0 -147.5 91t-58.5 250t57.5 254t148.5 95zM250 653q-126 0 -126 -353q0 -148 34.5 -219.5t91.5 -71.5q126 0 126 355q0 142 -34 215.5t-92 73.5z" />
    <glyph glyph-name="one" unicode="1" 
d="M120 598l158 78h13v-568q0 -64 11.5 -78.5t71.5 -14.5v-15h-242v15q57 1 71 16t14 72v409q0 52 -8.5 69.5t-29.5 17.5q-27 0 -53 -14z" />
    <glyph glyph-name="two" unicode="2" 
d="M450 122l-44 -122h-382v18q196 193 258.5 277t62.5 162q0 70 -36.5 113t-98.5 43q-54 0 -96 -35.5t-57 -88.5h-16q13 83 62 135t128 52q76 0 125.5 -49t49.5 -126q0 -124 -137 -271l-151 -161h205q88 0 112 53h15z" />
    <glyph glyph-name="three" unicode="3" 
d="M160 327v16q65 10 112 50.5t47 101.5q0 59 -31 92t-84 33q-81 0 -134 -92l-14 8q23 62 70.5 101t110.5 39q43 0 74 -14.5t46.5 -37t22.5 -44t7 -41.5q0 -46 -28 -88t-68 -70q130 -47 130 -163q0 -95 -65 -163.5t-195 -68.5q-24 0 -45.5 3.5t-41 15.5t-19.5 32
q0 15 11.5 24.5t28.5 9.5q22 0 59 -24t68 -24q53 0 95 41t42 103q0 68 -49.5 114t-149.5 46z" />
    <glyph glyph-name="four" unicode="4" 
d="M465 240v-62h-93v-178h-73v178h-284v55l308 442h49v-435h93zM299 240v343h-2l-234 -343h236z" />
    <glyph glyph-name="five" unicode="5" 
d="M436 662l-31 -70h-206l-54 -111q112 -13 192.5 -77.5t80.5 -168.5q0 -102 -76.5 -175.5t-181.5 -73.5q-49 0 -79 17.5t-30 44.5q0 14 10.5 24.5t25.5 10.5q21 0 57 -25t70 -25q62 0 106 44t44 111q0 95 -80 158t-211 63l124 253h239z" />
    <glyph glyph-name="six" unicode="6" 
d="M448 676v-16q-111 -4 -192.5 -90t-108.5 -206q72 54 146 54q76 0 119.5 -58t43.5 -139q0 -94 -56 -164.5t-146 -70.5q-67 0 -114.5 44t-67.5 104.5t-20 126.5q0 105 49.5 200.5t136.5 155t189 59.5h21zM380 172q0 99 -35.5 152.5t-97.5 53.5q-44 0 -106 -44
q-8 -54 -8 -101q0 -90 36.5 -155.5t91.5 -65.5q56 0 87.5 49t31.5 111z" />
    <glyph glyph-name="seven" unicode="7" 
d="M100 662h355v-20l-220 -657h-41l202 607h-205q-53 0 -81 -17t-55 -64l-15 6z" />
    <glyph glyph-name="eight" unicode="8" 
d="M200 336q-68 56 -87 79q-39 48 -39 105q0 70 50.5 113t122.5 43q83 0 130 -43t47 -101q0 -27 -12.5 -52.5t-36 -47t-44 -36t-48.5 -31.5q83 -63 109 -94q46 -53 46 -113q0 -76 -52.5 -124t-135.5 -48q-89 0 -137 47.5t-48 114.5q0 94 135 188zM264 380q27 24 38.5 35
t29.5 32.5t25 43.5t7 48q0 50 -31.5 80.5t-84.5 30.5q-48 0 -81 -28.5t-33 -70.5q0 -22 7 -41.5t25 -40t27.5 -30t38 -33t32.5 -26.5zM219 321q-38 -30 -63.5 -76t-25.5 -91q0 -63 33.5 -102.5t93.5 -39.5q53 0 86.5 29t33.5 76q0 43 -35 88.5t-123 115.5z" />
    <glyph glyph-name="nine" unicode="9" 
d="M53 -14v16q110 0 188.5 85t108.5 203q-65 -47 -142 -47q-76 0 -119 58t-43 138q0 95 54.5 166t145.5 71q65 0 112.5 -43.5t68.5 -104.5t21 -129q0 -96 -45 -189.5t-134 -158.5t-200 -65h-16zM358 324q9 59 9 102q0 46 -12.5 95t-43.5 89t-73 40q-57 0 -87 -49.5
t-30 -113.5q0 -102 33.5 -153.5t91.5 -51.5q26 0 59.5 12t52.5 30z" />
    <glyph glyph-name="colon" unicode=":" horiz-adv-x="278" 
d="M140 354q-20 0 -35.5 15.5t-15.5 35.5t15.5 35t35.5 15q21 0 35.5 -15t14.5 -35q0 -21 -15 -36t-35 -15zM139 -9q-20 0 -36 15.5t-16 36.5q0 20 15.5 34.5t36.5 14.5t35.5 -14.5t14.5 -34.5q0 -22 -15 -37t-35 -15z" />
    <glyph glyph-name="semicolon" unicode=";" horiz-adv-x="278" 
d="M139 353q-20 0 -35.5 15.5t-15.5 35.5q0 21 15 35.5t35 14.5q21 0 36 -14.5t15 -35.5t-14.5 -36t-35.5 -15zM71 -159v18q45 15 73.5 51t28.5 80q0 20 -14 20q-5 0 -17 -7t-22 -7q-19 0 -30.5 13t-11.5 32q0 21 16 36t37 15q32 0 51 -28.5t19 -64.5q0 -54 -38 -98.5
t-92 -59.5z" />
    <glyph glyph-name="less" unicode="&#x3c;" horiz-adv-x="564" 
d="M20 344l525 229v-35l-470 -206l470 -206v-35l-525 229v24z" />
    <glyph glyph-name="equal" unicode="=" horiz-adv-x="564" 
d="M20 427h525v-33h-525v33zM20 269h525v-32h-525v32z" />
    <glyph glyph-name="greater" unicode="&#x3e;" horiz-adv-x="564" 
d="M545 320l-525 -229v35l470 206l-470 206v35l525 -229v-24z" />
    <glyph glyph-name="question" unicode="?" horiz-adv-x="444" 
d="M217 158h-16q0 53 18 104.5t39.5 86t39.5 79t18 85.5q0 63 -31 102t-80 39q-47 0 -75 -19.5t-28 -47.5q0 -18 15 -44.5t15 -40.5q0 -17 -10.5 -27.5t-24.5 -10.5q-22 0 -36.5 20.5t-14.5 51.5q0 54 43 97.5t133 43.5q43 0 76.5 -12t51 -29t29 -40t14.5 -40t3 -34
q0 -40 -18.5 -77.5t-45 -67.5l-52.5 -61.5t-44.5 -72t-18.5 -85.5zM209 -15q-20 0 -35 15.5t-15 36.5q0 19 14.5 34t35.5 15q22 0 36.5 -14.5t14.5 -34.5q0 -21 -15 -36.5t-36 -15.5z" />
    <glyph glyph-name="at" unicode="@" horiz-adv-x="921" 
d="M683 466l-83 -287q-19 -64 -19 -91q0 -41 43 -41q75 0 142.5 95t67.5 223q0 136 -90 221.5t-228 85.5q-123 0 -223 -67t-153 -174t-53 -229q0 -167 110 -279.5t278 -112.5q143 0 247.5 75t150.5 199h25q-41 -135 -160 -217.5t-261 -82.5q-185 0 -306.5 123t-121.5 308
q0 129 59 238.5t165.5 175t236.5 65.5q154 0 252 -91t98 -244q0 -82 -31 -159.5t-94.5 -131t-143.5 -53.5q-72 0 -72 67q0 29 8 67l-2 2q-39 -53 -89 -94.5t-99 -41.5q-41 0 -63.5 33.5t-22.5 77.5q0 77 42 158.5t104.5 133.5t119.5 52q31 0 53.5 -17.5t27.5 -47.5h2l16 52z
M581 377q0 33 -16.5 52.5t-43.5 19.5q-41 0 -89.5 -54.5t-80.5 -126.5t-32 -124q0 -35 15 -55.5t44 -20.5q39 0 86.5 45t82 118.5t34.5 145.5z" />
    <glyph glyph-name="A" unicode="A" horiz-adv-x="725" 
d="M470 225h-266l-40 -97q-22 -53 -22 -71q0 -16 12.5 -25.5t26 -12t38.5 -4.5v-15h-202v15q38 4 59 25.5t45 77.5l232 559h11l225 -540q12 -30 16 -38.5t16 -30t22 -29t26.5 -15.5t37.5 -9v-15h-246v15q35 2 52 11.5t17 33.5q0 19 -24 79zM458 253l-123 299l-119 -299h242z
" />
    <glyph glyph-name="B" unicode="B" horiz-adv-x="651" 
d="M117 124v422q0 64 -18.5 82.5t-75.5 18.5v15h303q121 0 185.5 -47t64.5 -131q0 -52 -35 -91t-87 -54v-2q62 -8 107 -50t45 -103q0 -83 -64 -133.5t-184 -50.5h-335v15q60 0 77 20.5t17 88.5zM195 622v-262q35 -7 123 -7q79 0 123.5 37.5t44.5 97.5q0 69 -52.5 106.5
t-139.5 37.5q-60 0 -99 -10zM195 323v-278q51 -13 126 -13q73 0 130 37t57 104q0 54 -34 90.5t-80.5 50.5t-101.5 14q-65 0 -97 -5z" />
    <glyph glyph-name="C" unicode="C" horiz-adv-x="667" 
d="M599 677l15 -225h-12q-23 90 -78 142.5t-144 52.5q-104 0 -171.5 -85.5t-67.5 -242.5q0 -78 22.5 -137.5t60.5 -92.5t81 -49t89 -16q74 0 125.5 34.5t100.5 105.5l12 -9q-47 -86 -112.5 -128t-161.5 -42q-141 0 -227.5 95t-86.5 238q0 151 92.5 254.5t241.5 103.5
q41 0 78.5 -11.5t60.5 -23t31 -11.5q32 0 37 47h14z" />
    <glyph glyph-name="D" unicode="D" horiz-adv-x="724" 
d="M122 124v422q0 63 -17.5 82t-76.5 19v15h268q183 0 282.5 -80t99.5 -248q0 -143 -92 -238.5t-258 -95.5h-300v15q61 0 77.5 20t16.5 89zM200 618v-574q54 -13 112 -13q122 0 195 82t73 218q0 145 -74.5 222.5t-196.5 77.5q-64 0 -109 -13z" />
    <glyph glyph-name="E" unicode="E" horiz-adv-x="612" 
d="M200 632v-271h141q65 0 88.5 17.5t27.5 79.5h15v-225h-15q-6 62 -28.5 80t-87.5 18h-141v-239q0 -35 13 -48.5t50 -13.5h135q61 0 94.5 28.5t77.5 103.5h15l-56 -162h-501v15q60 0 77 20t17 89v422q0 63 -17.5 82t-76.5 19v15h496l9 -145h-16q-14 74 -40.5 94.5
t-99.5 20.5h-177z" />
    <glyph glyph-name="F" unicode="F" horiz-adv-x="557" 
d="M200 631v-271h116q56 0 77 18.5t22 73.5h15v-213h-15q-1 54 -22 73t-77 19h-116v-207q0 -69 14 -89t80 -20v-15h-266v15q65 0 79.5 20t14.5 89v410q0 37 -2 53.5t-10.5 33t-28 21.5t-53.5 5v15h479l7 -147h-12q-20 72 -52 94t-108 22h-142z" />
    <glyph glyph-name="G" unicode="G" horiz-adv-x="723" 
d="M624 250v-207q-105 -58 -218 -58q-170 0 -266.5 96.5t-96.5 238.5q0 61 21 122t61.5 114.5t108.5 87t153 33.5q63 0 120 -21t65 -21q23 0 25 42h16l17 -210h-16q-54 180 -222 180q-112 0 -181.5 -83.5t-69.5 -221.5q0 -144 74.5 -236.5t190.5 -92.5q81 0 143 38v183
q0 69 -14.5 89t-79.5 20v15h244v-15q-46 0 -60.5 -19.5t-14.5 -73.5z" />
    <glyph glyph-name="H" unicode="H" horiz-adv-x="725" 
d="M200 352h325v192q0 66 -18 84.5t-76 18.5v15h266v-15q-58 0 -76 -19.5t-18 -83.5v-425q0 -68 16.5 -86t77.5 -18v-15h-266v15q57 0 75.5 20t18.5 84v201h-325v-202q0 -68 16 -85.5t78 -17.5v-15h-266v15q58 0 76 19.5t18 83.5v426q0 65 -17 84t-77 19v15h266v-15
q-59 0 -76.5 -19.5t-17.5 -83.5v-192z" />
    <glyph glyph-name="I" unicode="I" horiz-adv-x="329" 
d="M204 545v-428q0 -67 16 -84.5t78 -17.5v-15h-266v15q57 0 75.5 19.5t18.5 82.5v428q0 64 -17.5 83t-76.5 19v15h266v-15q-57 0 -75.5 -19t-18.5 -83z" />
    <glyph glyph-name="J" unicode="J" horiz-adv-x="391" 
d="M204 103v442q0 64 -18 83t-76 19v15h266v-15q-58 0 -76 -19.5t-18 -82.5v-336q0 -122 -45 -173t-112 -51q-41 0 -69 22t-28 52q0 18 11.5 30t27.5 12q19 0 33.5 -13t21 -28t17.5 -28t25 -13q40 0 40 84z" />
    <glyph glyph-name="K" unicode="K" horiz-adv-x="729" 
d="M274 365l246 -236q35 -34 59.5 -54t63.5 -39.5t76 -20.5v-15h-299v15q20 0 36.5 7.5t16.5 23.5q0 7 -2 14t-8.5 15.5t-9 11.5t-13 13l-11.5 11l-229 219v-208q0 -69 14 -88t80 -19v-15h-266v15q66 0 80 19t14 88v423q0 64 -17.5 83t-76.5 19v15h266v-15q-58 0 -76 -19.5
t-18 -82.5v-203l177 160q92 82 92 114q0 19 -15 25t-46 6v15h230v-15q-40 -3 -75 -26t-95 -78z" />
    <glyph glyph-name="L" unicode="L" horiz-adv-x="612" 
d="M200 539v-416q0 -54 9.5 -70t36.5 -16h158q61 0 100.5 33.5t70.5 112.5l14 -3l-57 -180h-504v15q58 0 76 19t18 87v424q0 65 -17.5 83.5t-76.5 18.5v15h283v-15q-71 0 -91 -19t-20 -89z" />
    <glyph glyph-name="M" unicode="M" horiz-adv-x="890" 
d="M411 0l-257 560h-2v-436q0 -70 16.5 -89.5t77.5 -19.5v-15h-224v15q60 0 77 20t17 89v415q0 64 -17 86t-77 22v15h171l246 -542l249 542h174v-15q-59 0 -76.5 -20.5t-17.5 -88.5v-414q0 -68 18 -88.5t76 -20.5v-15h-266v15q60 0 77 20t17 89v454h-2l-266 -578h-11z" />
    <glyph glyph-name="N" unicode="N" horiz-adv-x="724" 
d="M158 527v-403q0 -69 16 -89t78 -20v-15h-223v15q60 0 77 19t17 90v448q-32 40 -58.5 57.5t-72.5 17.5v15h160l427 -523h2v395q0 74 -17 93.5t-77 19.5v15h223v-15q-58 0 -76 -20.5t-18 -92.5v-545h-16l-440 538h-2z" />
    <glyph glyph-name="O" unicode="O" horiz-adv-x="722" 
d="M361 -15q-140 0 -229.5 101.5t-89.5 244.5t90 244.5t229 101.5q140 0 229 -100.5t89 -245.5q0 -143 -89.5 -244.5t-228.5 -101.5zM361 14q59 0 103 26.5t69 72.5t36.5 100.5t11.5 117.5t-12 117.5t-36.5 100.5t-68.5 72.5t-103 26.5t-103.5 -27t-69 -73t-36.5 -100.5
t-12 -116.5q0 -63 12 -117.5t37 -100.5t69 -72.5t103 -26.5z" />
    <glyph glyph-name="P" unicode="P" horiz-adv-x="557" 
d="M200 313v-196q0 -66 16.5 -84t77.5 -18v-15h-266v15q57 0 75.5 20t18.5 82v428q0 64 -18 83t-76 19v15h262q106 0 165.5 -50t59.5 -135q0 -79 -54.5 -130t-142.5 -51q-39 0 -118 17zM200 620v-280q70 -15 103 -15q50 0 84 41.5t34 105.5q0 74 -38.5 115.5t-104.5 41.5
q-45 0 -78 -9z" />
    <glyph glyph-name="Q" unicode="Q" horiz-adv-x="722" 
d="M681 -182v-14q-217 10 -390 186q-115 33 -182 125.5t-67 215.5q0 142 89 244t230 102q140 0 229 -101.5t89 -244.5q0 -122 -70 -219t-182 -121q38 -72 106.5 -120.5t147.5 -52.5zM361 13q100 0 160 81t60 237q0 147 -57.5 232t-162.5 85t-163 -84t-58 -233
q0 -152 59 -235t162 -83z" />
    <glyph glyph-name="R" unicode="R" horiz-adv-x="672" 
d="M672 0h-168l-222 311h-82v-184q0 -69 14.5 -90.5t79.5 -21.5v-15h-265v15q65 0 79.5 21.5t14.5 90.5v411q0 69 -14.5 89t-79.5 20v15h270q66 0 114 -17t71.5 -44.5t34 -55t10.5 -55.5q0 -68 -45.5 -110.5t-116.5 -57.5l130 -181q32 -44 49.5 -64.5t50.5 -39.5t75 -22v-15
zM200 627v-288h22q212 0 212 147q0 68 -39.5 109t-106.5 41q-19 0 -40 -2t-34 -4z" />
    <glyph glyph-name="S" unicode="S" horiz-adv-x="551" 
d="M453 677v-229h-14q-6 83 -56 141t-129 58q-51 0 -87 -31.5t-36 -76.5q0 -44 37.5 -80t91.5 -62.5l108 -54.5t91.5 -71t37.5 -98q0 -81 -55 -134.5t-150 -53.5q-54 0 -105 18.5t-71 18.5q-26 0 -30 -37h-14v227h14q6 -55 28 -95.5t53 -61t60 -30t56 -9.5q62 0 100.5 31
t38.5 86q0 34 -19.5 62.5t-51 49t-69.5 39.5l-76 39.5t-69.5 44t-51 58.5t-19.5 78q0 75 55.5 124t136.5 49q43 0 91 -19t56 -19q27 0 34 38h14z" />
    <glyph glyph-name="T" unicode="T" horiz-adv-x="611" 
d="M345 629v-506q0 -74 15 -91t79 -17v-15h-266v15q63 0 78.5 17.5t15.5 90.5v506h-123q-56 0 -76 -32t-26 -91h-14l7 156h542l7 -156h-14q-3 28 -7.5 46.5t-15 38t-31 29t-50.5 9.5h-121z" />
    <glyph glyph-name="U" unicode="U" horiz-adv-x="725" 
d="M113 237v309q0 62 -17.5 81.5t-76.5 19.5v15h266v-15q-58 0 -76 -19t-18 -82v-275q0 -133 40.5 -192t138.5 -59q107 0 158.5 62.5t51.5 192.5v263q0 69 -15 89t-79 20v15h223v-15q-65 0 -79.5 -20t-14.5 -89v-299q0 -115 -60.5 -184.5t-188.5 -69.5q-253 0 -253 252z" />
    <glyph glyph-name="V" unicode="V" horiz-adv-x="727" 
d="M398 106l160 408q26 66 26 87q0 46 -70 46v15h193v-15q-44 -4 -62 -25t-42 -81l-220 -556h-14l-240 562q-25 59 -45 77.5t-65 22.5v15h254v-15q-39 -2 -57.5 -12.5t-18.5 -34.5q0 -17 28 -84z" />
    <glyph glyph-name="W" unicode="W" horiz-adv-x="945" 
d="M655 129l131 382q23 66 23 89q0 25 -16 36t-57 11v15h190v-15q-39 0 -58 -23t-40 -84l-186 -555h-14l-154 431h-2l-144 -431h-15l-202 574q-19 53 -35 70.5t-57 17.5v15h228v-15q-67 0 -67 -42q0 -15 15 -57l145 -418h2l115 341l-26 75q-22 62 -41.5 81.5t-60.5 19.5v15
h240v-15q-37 0 -55 -8.5t-18 -36.5q0 -18 26 -96l131 -377h2z" />
    <glyph glyph-name="X" unicode="X" horiz-adv-x="719" 
d="M353 301l-136 -180q-35 -50 -35 -69t14 -27t50 -10v-15h-229v15q47 4 83.5 32t83.5 88l150 195l-121 180q-49 75 -85.5 105t-99.5 32v15h294v-15q-41 -1 -56 -10.5t-15 -28.5q0 -18 28 -60l104 -159l118 154q36 46 36 67q0 36 -69 37v15h223v-15q-47 -1 -79.5 -28
t-80.5 -90l-129 -167l173 -259q34 -50 61 -68t66 -20v-15h-265v15q38 1 52.5 9.5t14.5 24.5q0 24 -37 80z" />
    <glyph glyph-name="Y" unicode="Y" horiz-adv-x="724" 
d="M383 313l133 208q34 54 34 80q0 46 -69 46v15h225v-15q-44 0 -75 -24.5t-61 -72.5l-169 -268v-164q0 -66 16 -84.5t78 -18.5v-15h-266v15q57 0 75.5 19.5t18.5 83.5v154l-207 317q-37 56 -95 58v15h268v-15q-37 0 -57 -8t-20 -32q0 -19 21 -54z" />
    <glyph glyph-name="Z" unicode="Z" horiz-adv-x="610" 
d="M126 35h278q66 0 95 30.5t58 109.5h15l-31 -175h-522v18l429 609h-206q-78 0 -108.5 -26t-41.5 -105h-15l14 166h476z" />
    <glyph glyph-name="bracketleft" unicode="[" horiz-adv-x="333" 
d="M292 -198h-205v875h205v-33h-140v-810h140v-32z" />
    <glyph glyph-name="backslash" unicode="\" horiz-adv-x="278" 
d="M36 694l239 -709h-34l-239 709h34z" />
    <glyph glyph-name="bracketright" unicode="]" horiz-adv-x="333" 
d="M41 677h205v-875h-205v33h140v808h-140v34z" />
    <glyph glyph-name="asciicircum" unicode="^" horiz-adv-x="469" 
d="M244 676l207 -352h-41l-176 300l-176 -300h-40l208 352h18z" />
    <glyph glyph-name="underscore" unicode="_" 
d="M508 -120h-516v37h516v-37z" />
    <glyph glyph-name="grave" unicode="`" horiz-adv-x="333" 
d="M66 715h93l58 -169h-14z" />
    <glyph glyph-name="a" unicode="a" horiz-adv-x="445" 
d="M357 335v-232q0 -38 5.5 -50t18.5 -12q21 0 55 38v-24q-19 -27 -47 -48t-49 -21q-23 0 -37 19.5t-14 54.5q-50 -42 -79.5 -58t-64.5 -16q-47 0 -75.5 30t-28.5 82q0 59 57 101t191 92q0 35 -2 55.5t-9.5 44t-25.5 34.5t-47 11q-34 0 -54 -17.5t-20 -46.5q0 -68 -40 -68
q-17 0 -26.5 11.5t-9.5 29.5q0 45 45 80.5t119 35.5q66 0 102 -33t36 -93zM289 90v175q-92 -33 -135 -68t-43 -79q0 -37 20.5 -59t49.5 -22q23 0 44.5 10.5t63.5 42.5z" />
    <glyph glyph-name="b" unicode="b" 
d="M148 694v-322h2q26 39 64.5 64t81.5 25q66 0 116 -57t50 -161q0 -65 -22.5 -116.5t-57.5 -81t-72.5 -44.5t-72.5 -15q-77 0 -157 57v537q0 33 -8.5 44.5t-27.5 11.5q-14 0 -41 -11l-5 14l134 55h16zM148 337v-271q48 -50 106 -50q57 0 96 51.5t39 147.5q0 90 -36.5 138.5
t-93.5 48.5q-56 0 -111 -65z" />
    <glyph glyph-name="c" unicode="c" horiz-adv-x="445" 
d="M395 178l14 -6q-12 -80 -60 -133t-122 -53q-80 0 -132.5 66t-52.5 174q0 105 58.5 170t147.5 65q59 0 103 -31.5t44 -72.5q0 -18 -11 -29.5t-31 -11.5q-42 0 -48 53q-5 63 -71 63q-60 0 -96 -47t-36 -122q0 -96 44 -155.5t108 -59.5q52 0 88 35t53 95z" />
    <glyph glyph-name="d" unicode="d" horiz-adv-x="503" 
d="M355 415v150q0 42 -8 56t-29 14q-18 0 -35 -7l-5 14l129 52h16v-590q0 -36 7.5 -47.5t28.5 -11.5q20 0 34 7l6 -14l-128 -52h-16v68q-68 -68 -140 -68q-75 0 -124 62.5t-49 158.5q0 98 57 176t149 78q70 0 107 -46zM356 86v216q0 58 -31 94.5t-81 36.5q-55 0 -90.5 -49.5
t-35.5 -141.5t39 -149.5t96 -57.5q49 0 103 51z" />
    <glyph glyph-name="e" unicode="e" horiz-adv-x="450" 
d="M412 278h-315q0 -109 42.5 -168t113.5 -59q105 0 144 121l13 -7q-14 -76 -61 -127.5t-116 -51.5q-85 0 -140 65t-55 165q0 110 55.5 177.5t146.5 67.5q78 0 125 -51t47 -132zM98 305h230q-1 60 -31 93.5t-78 33.5q-46 0 -82 -36t-39 -91z" />
    <glyph glyph-name="f" unicode="f" horiz-adv-x="335" 
d="M200 420v-293q0 -74 14.5 -92.5t68.5 -19.5v-15h-236v15q57 1 71 19t14 93v293h-87v27h87v49q0 88 47 143t123 55q46 0 87.5 -24t41.5 -59q0 -15 -9.5 -24t-25.5 -9q-17 0 -30.5 13.5t-21.5 30t-25.5 30t-41.5 13.5q-77 0 -77 -129v-89h115v-27h-115z" />
    <glyph glyph-name="g" unicode="g" 
d="M34 -118q0 22 26 59.5t63 70.5q-25 11 -36.5 21t-11.5 25q0 44 73 107q-78 40 -78 133q0 68 48 115.5t127 47.5q56 0 105 -35h111q12 0 16 -3.5t4 -14.5q0 -12 -4 -15.5t-17 -3.5h-76q11 -16 19 -44t8 -49q0 -62 -46 -107t-128 -45q-41 0 -64 10q-40 -35 -40 -60
q0 -13 12.5 -19.5t52.5 -11t116 -4.5q83 -1 120 -26t37 -80q0 -61 -70 -115t-176 -54q-68 0 -129.5 26.5t-61.5 71.5zM232 440q-38 0 -63.5 -32.5t-25.5 -87.5q0 -74 29.5 -115t74.5 -41q42 0 66 30t24 92q0 76 -28 115t-77 39zM148 4q-57 -53 -57 -92q0 -33 46.5 -57
t122.5 -24q79 0 130.5 32.5t51.5 76.5q0 29 -29.5 42t-98.5 13q-128 0 -166 9z" />
    <glyph glyph-name="h" unicode="h" horiz-adv-x="502" 
d="M422 318v-236q0 -38 15.5 -52.5t55.5 -14.5v-15h-210v15q38 0 54.5 13.5t16.5 53.5v218q0 110 -73 110q-54 0 -124 -72v-256q0 -38 15.5 -52.5t55.5 -14.5v-15h-211v15q42 0 57 13.5t15 53.5v495q0 34 -8 46.5t-26 12.5q-21 0 -39 -8l-5 13l130 53h16v-330q86 97 158 97
q50 0 78.5 -35.5t28.5 -107.5z" />
    <glyph glyph-name="i" unicode="i" horiz-adv-x="277" 
d="M178 461v-379q0 -39 15 -52.5t56 -14.5v-15h-210v15q42 1 56.5 14.5t14.5 52.5v262q0 35 -7.5 46.5t-27.5 11.5q-18 0 -38 -9l-5 14l129 54h17zM92 639q0 18 14.5 32t32.5 14q19 0 32.5 -13.5t13.5 -32.5t-13.5 -33t-32.5 -14t-33 14t-14 33z" />
    <glyph glyph-name="j" unicode="j" horiz-adv-x="269" 
d="M178 461v-464q0 -107 -46.5 -160t-117.5 -53q-41 0 -62 14t-21 33q0 14 10.5 23.5t26.5 9.5q23 0 51.5 -23t46.5 -23q44 0 44 83v443q0 37 -8 48t-27 11q-15 0 -42 -11l-5 14l132 55h18zM93 639q0 19 14 32.5t33 13.5q20 0 33 -13.5t13 -32.5q0 -20 -13.5 -33.5
t-32.5 -13.5q-20 0 -33.5 14t-13.5 33z" />
    <glyph glyph-name="k" unicode="k" horiz-adv-x="507" 
d="M305 64l-146 185l130 120q32 30 32 41q0 22 -36 22v15h187v-15q-44 0 -72 -12t-63 -45l-106 -100l138 -176q36 -46 64.5 -65t61.5 -19v-15h-207v15q31 0 31 19q0 14 -14 30zM158 694v-612q0 -38 15 -52.5t54 -14.5v-15h-206v15q39 0 54 14t15 53v495q0 33 -8.5 46
t-28.5 13q-17 0 -37 -9l-5 13l132 54h15z" />
    <glyph glyph-name="l" unicode="l" horiz-adv-x="258" 
d="M158 694v-612q0 -40 16.5 -53t55.5 -14v-15h-210v15q38 1 54 14t16 53v492q0 35 -9 48t-29 13q-17 0 -35 -9l-6 14l132 54h15z" />
    <glyph glyph-name="m" unicode="m" horiz-adv-x="769" 
d="M158 461v-95q28 29 47.5 46.5t51.5 33t63 15.5q40 0 66.5 -26t33.5 -75q28 34 45.5 51.5t47.5 33.5t63 16q115 0 115 -148v-231q0 -41 15.5 -53.5t53.5 -13.5v-15h-205v15q38 1 53 13.5t15 53.5v204q0 75 -16 99.5t-58 24.5q-49 0 -125 -69v-259q0 -41 15.5 -53.5
t53.5 -13.5v-15h-206v15q38 1 53.5 13.5t15.5 53.5v218q0 60 -17.5 85t-56.5 25q-50 0 -124 -69v-259q0 -41 13 -53.5t55 -13.5v-15h-205v15q40 1 54.5 13.5t14.5 53.5v253q0 40 -8.5 53.5t-29.5 13.5q-14 0 -35 -8l-6 13l131 54h16z" />
    <glyph glyph-name="n" unicode="n" horiz-adv-x="503" 
d="M157 461v-97q87 97 159 97q50 0 78 -35.5t28 -107.5v-236q0 -39 14.5 -52.5t57.5 -14.5v-15h-211v15q42 1 56.5 14t14.5 53v218q0 110 -73 110q-54 0 -124 -72v-256q0 -41 13.5 -54t57.5 -13v-15h-210v15q42 0 56.5 13.5t14.5 53.5v254q0 39 -8.5 52.5t-29.5 13.5
q-15 0 -35 -8l-6 13l132 54h15z" />
    <glyph glyph-name="o" unicode="o" 
d="M251 461q84 0 147 -66t63 -161q0 -58 -20 -112t-70.5 -95t-122.5 -41q-83 0 -145 69.5t-62 163.5q0 101 61 171.5t149 70.5zM241 432q-52 0 -87.5 -46.5t-35.5 -125.5q0 -107 41.5 -176t108.5 -69q61 0 88.5 53t27.5 123q0 117 -40.5 179t-102.5 62z" />
    <glyph glyph-name="p" unicode="p" horiz-adv-x="494" 
d="M81 -131v475q0 34 -8.5 46t-28.5 12q-14 0 -34 -8l-5 14l128 53h16v-91h2q25 41 64.5 66t80.5 25q66 0 113 -59t47 -164q0 -111 -58 -181.5t-141 -70.5q-32 0 -62.5 14.5t-45.5 37.5v-169q0 -42 15 -54t62 -13v-15h-222v15q46 1 61.5 13t15.5 54zM149 332v-204
q0 -50 30 -82.5t79 -32.5q55 0 93 52t38 138q0 96 -36 147.5t-91 51.5q-63 0 -113 -70z" />
    <glyph glyph-name="q" unicode="q" horiz-adv-x="501" 
d="M426 461v-592q0 -42 13.5 -53.5t63.5 -13.5v-15h-222v15q50 1 63.5 13t13.5 54v206q-29 -38 -70.5 -63.5t-84.5 -25.5q-66 0 -114 61t-48 154q0 110 58.5 185t163.5 75q59 0 102 -38l45 38h16zM358 112v216q0 51 -28.5 78.5t-76.5 27.5q-64 0 -103.5 -52t-39.5 -148
t42.5 -142.5t91.5 -46.5q29 0 61 20.5t53 46.5z" />
    <glyph glyph-name="r" unicode="r" horiz-adv-x="337" 
d="M159 461v-95q2 4 6.5 10.5t18 22.5t27.5 28.5t34 23t39 10.5q24 0 38.5 -13.5t14.5 -34.5q0 -16 -13 -28.5t-33 -12.5q-15 0 -33.5 12t-28.5 12q-17 0 -38.5 -28t-32.5 -50v-234q0 -42 15 -55t68 -14v-15h-220v15q42 2 55.5 15t13.5 52v252q0 40 -8.5 54.5t-28.5 14.5
q-13 0 -36 -9l-6 13l132 54h16z" />
    <glyph glyph-name="s" unicode="s" horiz-adv-x="389" 
d="M321 461v-153h-15q-5 54 -36 90.5t-85 36.5q-32 0 -55.5 -18.5t-23.5 -49.5q0 -32 25.5 -55t61.5 -39t72 -34t61.5 -49.5t25.5 -75.5q0 -59 -43 -93.5t-106 -34.5q-36 0 -71.5 10t-43.5 10q-15 0 -18 -13h-15v160h15q6 -60 42 -100.5t95 -40.5q35 0 58 20t23 54
q0 35 -24 59.5t-58.5 40.5l-69 33t-58.5 45.5t-24 69.5q0 57 38 92t98 35q21 0 51.5 -9.5t43.5 -9.5q14 0 21 19h15z" />
    <glyph glyph-name="t" unicode="t" horiz-adv-x="280" 
d="M153 447h105v-27h-105v-295q0 -47 10.5 -65t36.5 -18q17 0 32.5 12.5t22.5 34.5h16q-13 -43 -40 -69t-63 -26q-83 0 -83 107v319h-74v15q53 18 81 50.5t46 98.5h15v-137z" />
    <glyph glyph-name="u" unicode="u" horiz-adv-x="497" 
d="M409 447v-343q0 -34 7.5 -46t28.5 -12q20 0 35 6l5 -14l-128 -52h-16v94q-84 -94 -158 -94q-52 0 -80 36t-28 101v231q0 47 -13 62t-61 16v15h142v-321q0 -92 75 -92q27 0 62.5 23t60.5 49v248q0 47 -13 62t-61 16v15h142z" />
    <glyph glyph-name="v" unicode="v" horiz-adv-x="502" 
d="M281 93l106 260q16 37 16 53q0 14 -11 19.5t-39 6.5v15h139v-15q-27 0 -42 -18t-29 -53l-154 -375h-18l-159 381q-16 38 -31.5 50.5t-45.5 14.5v15h199v-15q-27 0 -39.5 -6.5t-12.5 -26.5q0 -13 15 -51z" />
    <glyph glyph-name="w" unicode="w" horiz-adv-x="726" 
d="M518 106l95 245q14 36 14 50q0 16 -16.5 23.5t-34.5 7.5v15h139v-15q-25 -2 -40 -21t-27 -50l-144 -375h-14l-113 294l-135 -294h-15l-139 364q-1 3 -4.5 12.5t-5 12t-4.5 10.5t-5 10.5t-5.5 8.5t-6.5 8t-8 6.5t-10 6t-11.5 4t-13.5 3.5v15h184v-15q-18 0 -32 -8.5
t-14 -26.5q0 -15 13 -45l97 -260l99 222l-20 54q-13 35 -27.5 49.5t-48.5 14.5v15h210v-15q-23 0 -42 -9.5t-19 -30.5q0 -10 8 -32z" />
    <glyph glyph-name="x" unicode="x" horiz-adv-x="502" 
d="M210 228l-76 113q-41 59 -58 72q-23 18 -54 19v15h195v-15q-37 0 -37 -24q0 -14 44 -82l28 -41l28 38q49 63 49 85q0 24 -35 24v15h145v-15q-20 0 -38.5 -13t-30 -26t-35.5 -45l-66 -87l101 -149q43 -63 62 -80t50 -17v-15h-196v15q43 0 43 23q0 18 -38 74l-64 94
l-69 -94q-40 -51 -40 -72q0 -25 44 -25v-15h-141v15q11 1 22.5 7.5t23 19t19.5 22.5t20 26.5t16 21.5z" />
    <glyph glyph-name="y" unicode="y" horiz-adv-x="503" 
d="M252 17l-163 347q-18 38 -33 51t-45 17v15h203v-15q-31 0 -43 -8t-12 -26q0 -13 22 -63l108 -226l101 247q12 29 12 48q0 28 -45 28v15h138v-15q-40 0 -62 -52l-194 -473q-26 -64 -65 -93.5t-72 -29.5q-27 0 -44 13t-17 34q0 19 13 30t33 11q16 0 35.5 -9t27.5 -9
q21 0 38 21.5t38 75.5z" />
    <glyph glyph-name="z" unicode="z" horiz-adv-x="439" 
d="M409 132l-7 -132h-379v15l300 403h-138q-66 0 -86.5 -13.5t-26.5 -76.5h-15v119h359v-15l-297 -402h151q72 0 94.5 16.5t29.5 85.5h15z" />
    <glyph glyph-name="braceleft" unicode="{" horiz-adv-x="480" 
d="M104 230v18q47 6 80 34t33 73q0 25 -10.5 75t-10.5 77q0 72 54 129t126 58v-15q-48 -5 -82.5 -41t-34.5 -84q0 -25 10.5 -73.5t10.5 -75.5q0 -127 -136 -165v-2q134 -38 134 -165q0 -24 -10.5 -73t-10.5 -76q0 -47 35.5 -84t83.5 -42v-14q-72 1 -125.5 58t-53.5 129
q0 24 10.5 74.5t10.5 77.5q0 45 -33.5 73t-80.5 34z" />
    <glyph glyph-name="bar" unicode="|" horiz-adv-x="200" 
d="M117 694v-910h-34v910h34z" />
    <glyph glyph-name="braceright" unicode="}" horiz-adv-x="480" 
d="M377 248v-18q-47 -6 -80.5 -34t-33.5 -73q0 -25 10.5 -75t10.5 -77q0 -72 -53.5 -129t-125.5 -58v14q48 5 83.5 42t35.5 84q0 25 -10.5 73.5t-10.5 75.5q0 65 36 106.5t98 58.5v2q-62 17 -98.5 59t-36.5 106q0 24 10.5 73t10.5 76q0 47 -35 83.5t-83 41.5v15
q72 -1 126 -58t54 -129q0 -25 -10.5 -75t-10.5 -77q0 -45 33 -73t80 -34z" />
    <glyph glyph-name="asciitilde" unicode="~" horiz-adv-x="541" 
d="M497 411h21q-1 -63 -38 -108t-99 -45q-46 0 -128 46t-117 46q-38 0 -62.5 -28.5t-28.5 -68.5h-21q1 63 38 108.5t99 45.5q46 0 128 -46t117 -46q39 0 63 28t28 68z" />
    <glyph glyph-name="uni00A0" unicode="&#xa0;" horiz-adv-x="250" 
 />
    <glyph glyph-name="exclamdown" unicode="&#xa1;" horiz-adv-x="333" 
d="M159 286h16q38 -421 38 -449q0 -23 -12 -38t-34 -15t-34 14.5t-12 38.5q0 28 38 449zM167 376q-21 0 -36 14.5t-15 34.5q0 21 15 35.5t36 14.5t36 -14.5t15 -35.5q0 -20 -15 -34.5t-36 -14.5z" />
    <glyph glyph-name="cent" unicode="&#xa2;" 
d="M317 410l-120 -331q37 -32 86 -32q51 0 88 37.5t54 92.5l12 -5q-13 -76 -61.5 -131t-119.5 -55q-47 0 -85 23l-70 -194h-28l76 210q-77 66 -77 201q0 106 59 170.5t148 64.5q13 0 26 -3l70 191h29l-72 -197q38 -12 64 -38t26 -61q0 -16 -10 -26.5t-27 -10.5
q-26 0 -37.5 14.5t-18 42t-12.5 37.5zM176 100l118 327q-13 5 -30 5q-60 0 -97 -47.5t-37 -122.5q0 -105 46 -162z" />
    <glyph glyph-name="sterling" unicode="&#xa3;" 
d="M354 326h-133v-38q0 -93 -25 -175q17 -5 49 -17.5t58.5 -20.5t50.5 -8q83 0 107 85l15 -4q-8 -67 -44 -114.5t-99 -47.5q-28 0 -51.5 11.5t-58.5 41t-42 34.5q-14 -37 -39.5 -62t-53.5 -25q-27 0 -43.5 18t-16.5 46q0 35 24 56.5t60 21.5q25 0 49 -6q3 19 3 43
q0 31 -12 161h-96v37h91q-4 58 -4 93q0 94 43.5 157.5t132.5 63.5q55 0 86 -33t31 -68q0 -15 -9.5 -26t-23.5 -11q-18 0 -26.5 12.5t-9.5 42.5q-2 26 -19 42.5t-42 16.5q-98 0 -98 -145q0 -44 11 -145h135v-37zM155 89q-20 14 -51 14q-19 0 -34 -13.5t-15 -33.5
q0 -44 34 -44q22 0 41 23.5t25 53.5z" />
    <glyph glyph-name="currency" unicode="&#xa4;" 
d="M64 501l24 24l78 -79q42 31 93 31q52 0 96 -34l82 81l23 -22l-81 -83q32 -42 32 -90q0 -53 -33 -95l81 -81l-25 -24l-80 81q-42 -32 -92 -32q-55 0 -96 30l-78 -78l-23 23l78 78q-35 41 -35 99q0 55 34 93zM373 329q0 48 -33.5 80.5t-81.5 32.5q-47 0 -80 -32.5
t-33 -79.5q0 -50 33 -83.5t83 -33.5q48 0 80 34t32 82z" />
    <glyph glyph-name="yen" unicode="&#xa5;" 
d="M288 285v-184q0 -53 15.5 -69.5t68.5 -16.5v-15h-245v15q52 0 68.5 17.5t16.5 68.5v174l-28 66h-177v30h162l-44 105h-118v30h107l-24 56q-10 23 -16 35t-16 25t-22.5 18.5t-29.5 6.5v15h205v-15q-35 -1 -47.5 -7.5t-12.5 -22.5q0 -9 14 -44l28 -67h156l26 61
q16 38 16 52t-11.5 20.5t-45.5 7.5v15h161v-15q-35 -2 -52 -22t-44 -86l-14 -33h109v-30h-122l-44 -105h166v-30h-181zM336 476h-131l66 -157z" />
    <glyph glyph-name="brokenbar" unicode="&#xa6;" horiz-adv-x="200" 
d="M117 88v-304h-34v304h34zM117 694v-303h-34v303h34z" />
    <glyph glyph-name="section" unicode="&#xa7;" horiz-adv-x="501" 
d="M189 416q-64 66 -64 121q0 61 39 100.5t99 39.5q54 0 89 -31.5t35 -79.5q0 -15 -10 -26.5t-24 -11.5t-25 10t-11 24q0 7 3.5 20.5t3.5 21.5q0 55 -61 55q-39 0 -65.5 -25.5t-26.5 -60.5q0 -34 26 -66.5t63 -60l74 -57t63 -69.5t26 -85q0 -50 -32 -96t-78 -71
q61 -65 61 -119q0 -62 -38 -102.5t-99 -40.5q-49 0 -85 32t-36 79q0 16 10.5 28.5t25.5 12.5t24 -11.5t9 -28.5q0 -8 -4 -26.5t-4 -26.5q0 -18 18 -29.5t46 -11.5q35 0 61 22t26 59q0 34 -25.5 67.5t-62 62l-73 59t-62 70.5t-25.5 84q0 52 30 96t79 72zM204 401
q-80 -46 -80 -112q0 -40 27.5 -76t80.5 -78t65 -54q32 19 56 48t24 60q0 33 -20 65.5t-43.5 53l-59 49.5t-50.5 44z" />
    <glyph glyph-name="dieresis" unicode="&#xa8;" horiz-adv-x="333" 
d="M80 559q-19 0 -32 13.5t-13 32.5t13 32t32 13t32.5 -13t13.5 -32t-13.5 -32.5t-32.5 -13.5zM252 559q-19 0 -32 13.5t-13 32.5t13 32t32 13t32.5 -13t13.5 -32t-13.5 -32.5t-32.5 -13.5z" />
    <glyph glyph-name="copyright" unicode="&#xa9;" horiz-adv-x="760" 
d="M548 554l10 -137h-15q-14 53 -55 85.5t-95 32.5q-79 0 -120.5 -53t-41.5 -140q0 -95 43 -150.5t125 -55.5q45 0 89 22.5t68 60.5l14 -9q-66 -99 -189 -99q-92 0 -154.5 61t-62.5 153q0 101 65.5 165t167.5 64q33 0 68.5 -12.5t42.5 -12.5q18 0 25 25h15zM726 331
q0 -143 -101.5 -244.5t-244.5 -101.5t-244.5 101.5t-101.5 244.5t101.5 244.5t244.5 101.5q144 0 245 -100.5t101 -245.5zM699 331q0 136 -93 229t-227 93t-226 -92.5t-92 -229.5q0 -135 93 -228.5t226 -93.5t226 93.5t93 228.5z" />
    <glyph glyph-name="ordfeminine" unicode="&#xaa;" horiz-adv-x="282" 
d="M234 584v-142q0 -22 13 -22q10 0 27 13v-22q-40 -27 -66 -27q-28 0 -30 49q-60 -49 -110 -49q-26 0 -43 18t-17 44q0 23 15.5 44t45 37t53 26t56.5 22q0 47 -11 66t-46 19q-23 0 -36 -12t-13 -31q0 -39 -28 -39q-11 0 -18.5 8t-7.5 20q0 31 31 50.5t83 19.5
q102 0 102 -92zM178 452v103q-109 -38 -109 -88q0 -20 12 -32t33 -12q17 0 64 29z" />
    <glyph glyph-name="guillemotleft" unicode="&#xab;" horiz-adv-x="501" 
d="M246 -4h-20l-187 230l187 230h20l-125 -230zM467 -4h-20l-187 230l187 230h20l-125 -230z" />
    <glyph glyph-name="logicalnot" unicode="&#xac;" horiz-adv-x="564" 
d="M20 428h525v-192h-36v156h-489v36z" />
    <glyph glyph-name="uni00AD" unicode="&#xad;" horiz-adv-x="333" 
d="M40 259h253v-52h-253v52z" />
    <glyph glyph-name="registered" unicode="&#xae;" horiz-adv-x="760" 
d="M252 216v241q0 47 -9.5 61.5t-36.5 14.5v14h172q72 0 112 -30.5t40 -77.5q0 -44 -31.5 -73.5t-77.5 -37.5l97 -134q22 -32 37 -44t37 -12v-14h-101l-141 200h-37v-146q0 -23 11.5 -31.5t45.5 -8.5v-14h-169v14q32 0 41.5 14t9.5 64zM313 343h9q71 0 106 20.5t35 67.5
q0 44 -28 71t-80 27q-25 0 -42 -6v-180zM726 331q0 -144 -101.5 -245t-244.5 -101q-144 0 -245 101.5t-101 244.5q0 144 101 245t245 101t245 -101t101 -245zM700 331q0 136 -93.5 229t-226.5 93t-225.5 -93t-92.5 -229t92 -229t226 -93q131 0 225.5 91.5t94.5 230.5z" />
    <glyph glyph-name="macron" unicode="&#xaf;" horiz-adv-x="333" 
d="M11 624h311v-47h-311v47z" />
    <glyph glyph-name="degree" unicode="&#xb0;" horiz-adv-x="400" 
d="M351 528q0 -62 -43.5 -106.5t-105.5 -44.5q-65 0 -109.5 44t-44.5 108q0 61 45 104t106 43t106.5 -43t45.5 -105zM313 528q0 48 -33.5 80.5t-81.5 32.5q-47 0 -79.5 -32.5t-32.5 -79.5q0 -50 32.5 -83.5t82.5 -33.5q48 0 80 34t32 82z" />
    <glyph glyph-name="plusminus" unicode="&#xb1;" horiz-adv-x="564" 
d="M20 69v32h245v215h-245v32h245v247h33v-247h247v-32h-247v-215h247v-32h-525z" />
    <glyph glyph-name="twosuperior" unicode="&#xb2;" horiz-adv-x="300" 
d="M276 395l-29 -71h-238v18l22 17l26.5 21l27 22t28.5 25l25.5 25t24 27.5l17.5 27t13 28t4 26.5q0 33 -20.5 53.5t-53.5 20.5q-66 0 -86 -61h-15q7 49 37 75.5t79 26.5q47 0 79.5 -26.5t32.5 -66.5q0 -28 -16.5 -58.5t-48 -62.5t-52.5 -50.5t-54 -44.5h110q56 0 72 28h15z
" />
    <glyph glyph-name="threesuperior" unicode="&#xb3;" horiz-adv-x="300" 
d="M43 592l-14 7q33 77 109 77q38 0 65.5 -20t27.5 -55q0 -23 -14.5 -44.5t-37.5 -33.5q73 -26 73 -84q0 -60 -49 -91t-111 -31q-70 0 -70 30q0 19 27 19q11 0 37.5 -12t43.5 -12q29 0 50.5 18t21.5 49q0 83 -116 83v13q36 2 64 22t28 54q0 26 -16 41.5t-45 15.5
q-43 0 -74 -46z" />
    <glyph glyph-name="acute" unicode="&#xb4;" horiz-adv-x="333" 
d="M174 715h93l-137 -169h-13z" />
    <glyph glyph-name="mu" unicode="&#xb5;" 
d="M65 447h67v-274q0 -74 16.5 -102.5t56.5 -28.5q31 0 68 21.5t59 48.5v335h66v-328q0 -46 8.5 -65.5t29.5 -19.5q19 0 29.5 19.5t12.5 45.5h17q-1 -47 -24.5 -80t-68.5 -33q-33 0 -50.5 26t-19.5 66q-31 -39 -74.5 -65.5t-88.5 -26.5q-51 0 -75 42h-2q0 -46 10 -110
t10 -82q0 -25 -11 -38.5t-28 -13.5q-38 0 -38 52q0 18 15 90t15 142v379z" />
    <glyph glyph-name="paragraph" unicode="&#xb6;" horiz-adv-x="457" 
d="M393 637v-853h-31v853h-99v-853h-31v509q-106 0 -170 44t-64 140q0 88 56.5 136.5t161.5 48.5h243v-25h-66z" />
    <glyph glyph-name="periodcentered" unicode="&#xb7;" horiz-adv-x="250" 
d="M125 280q-21 0 -36 15.5t-15 35.5q0 21 15 35.5t36 14.5t35.5 -14.5t14.5 -35.5t-15 -36t-35 -15z" />
    <glyph glyph-name="cedilla" unicode="&#xb8;" horiz-adv-x="333" 
d="M146 8h31l-19 -64q44 0 69.5 -18.5t25.5 -48.5q0 -42 -33.5 -67.5t-78.5 -25.5q-31 0 -61 8l3 15q18 -6 39 -6q30 0 48.5 15t18.5 39q0 27 -20 42.5t-53 17.5z" />
    <glyph glyph-name="onesuperior" unicode="&#xb9;" horiz-adv-x="300" 
d="M68 634l97 42h17v-299q0 -24 9 -31t41 -7v-15h-155v15q33 0 41.5 6.5t8.5 31.5v185q0 43 -3 55t-14 12q-12 0 -35 -9z" />
    <glyph glyph-name="ordmasculine" unicode="&#xba;" horiz-adv-x="314" 
d="M292 531q0 -60 -39 -103.5t-97 -43.5q-59 0 -97 41t-38 100q0 66 39 108.5t102 42.5q57 0 93.5 -43t36.5 -102zM233 501q0 64 -26 109t-62 45q-65 0 -65 -96q0 -67 24.5 -111t57.5 -44q34 0 52.5 25t18.5 72z" />
    <glyph glyph-name="guillemotright" unicode="&#xbb;" horiz-adv-x="501" 
d="M255 456h21l186 -230l-186 -230h-21l125 230zM34 456h21l187 -230l-187 -230h-21l126 230z" />
    <glyph glyph-name="onequarter" unicode="&#xbc;" horiz-adv-x="750" 
d="M737 128v-36h-56v-92h-55v92h-170v32l183 227h42v-223h56zM626 128v166h-2l-133 -166h135zM68 634l97 42h17v-299q0 -24 9 -31t41 -7v-15h-155v15q32 0 41 7t9 31v186q0 43 -3 55t-14 12q-12 0 -35 -9zM626 676l-456 -702h-37l456 702h37z" />
    <glyph glyph-name="onehalf" unicode="&#xbd;" horiz-adv-x="753" 
d="M68 634l97 42h17v-299q0 -24 9 -31t41 -7v-15h-155v15q32 0 41 7t9 31v186q0 43 -3 55t-14 12q-12 0 -35 -9zM625 676l-456 -702h-37l456 702h37zM725 72l-29 -72h-236v18l22 17l26.5 21l27 22t28.5 25l25.5 25t24 27.5l17.5 27t13 28t4 26.5q0 32 -21.5 53t-53.5 21
q-65 0 -85 -61h-16q7 49 37.5 75.5t79.5 26.5q44 0 78 -25.5t34 -67.5q0 -16 -5.5 -33.5t-19 -36l-24 -32t-32 -33.5l-31 -29t-33 -28.5t-26.5 -22.5h110q55 0 71 28h14z" />
    <glyph glyph-name="threequarters" unicode="&#xbe;" horiz-adv-x="751" 
d="M625 676l-455 -702h-38l456 702h37zM737 128v-36h-56v-92h-55v92h-170v32l183 227h42v-223h56zM626 128v166h-2l-133 -166h135zM41 592l-12 7q33 77 109 77q38 0 65.5 -20t27.5 -55q0 -22 -14.5 -44t-37.5 -34q73 -26 73 -84q0 -60 -49 -91t-111 -31q-70 0 -70 30
q0 19 27 19q11 0 37 -12t44 -12q29 0 50.5 18t21.5 49q0 83 -116 83v13q36 2 64 22t28 54q0 26 -16 41.5t-45 15.5q-45 0 -76 -46z" />
    <glyph glyph-name="questiondown" unicode="&#xbf;" horiz-adv-x="444" 
d="M227 304h16q0 -53 -18 -105t-39.5 -87t-39.5 -79.5t-18 -85.5q0 -63 31 -102t80 -39q47 0 75 19.5t28 47.5q0 18 -15 44t-15 40q0 19 10 29t25 10q21 0 36 -20.5t15 -51.5q0 -54 -43 -97.5t-133 -43.5q-53 0 -90.5 17t-54 44t-23 49.5t-6.5 44.5q0 40 18.5 77.5t45 68
l52.5 62t44.5 72.5t18.5 86zM235 475q20 0 35 -15t15 -36q0 -20 -14.5 -35t-35.5 -15q-22 0 -36.5 14.5t-14.5 35.5t15 36t36 15z" />
    <glyph glyph-name="Agrave" unicode="&#xc0;" horiz-adv-x="725" 
d="M470 225h-266l-40 -97q-22 -53 -22 -71q0 -16 12.5 -25.5t26 -12t38.5 -4.5v-15h-202v15q38 4 59 25.5t45 77.5l232 559h11l225 -540q12 -30 16 -38.5t16 -30t22 -29t26.5 -15.5t37.5 -9v-15h-246v15q35 2 52 11.5t17 33.5q0 19 -24 79zM458 253l-123 299l-119 -299h242z
M213 878h93l58 -169h-14z" />
    <glyph glyph-name="Aacute" unicode="&#xc1;" horiz-adv-x="725" 
d="M470 225h-266l-40 -97q-22 -53 -22 -71q0 -16 12.5 -25.5t26 -12t38.5 -4.5v-15h-202v15q38 4 59 25.5t45 77.5l232 559h11l225 -540q12 -30 16 -38.5t16 -30t22 -29t26.5 -15.5t37.5 -9v-15h-246v15q35 2 52 11.5t17 33.5q0 19 -24 79zM458 253l-123 299l-119 -299h242z
M413 878h93l-137 -169h-13z" />
    <glyph glyph-name="Acircumflex" unicode="&#xc2;" horiz-adv-x="725" 
d="M470 225h-266l-40 -97q-22 -53 -22 -71q0 -16 12.5 -25.5t26 -12t38.5 -4.5v-15h-202v15q38 4 59 25.5t45 77.5l232 559h11l225 -540q12 -30 16 -38.5t16 -30t22 -29t26.5 -15.5t37.5 -9v-15h-246v15q35 2 52 11.5t17 33.5q0 19 -24 79zM458 253l-123 299l-119 -299h242z
M319 865h71l102 -161h-14l-125 108l-124 -108h-13z" />
    <glyph glyph-name="Atilde" unicode="&#xc3;" horiz-adv-x="725" 
d="M470 225h-266l-40 -97q-22 -53 -22 -71q0 -16 12.5 -25.5t26 -12t38.5 -4.5v-15h-202v15q38 4 59 25.5t45 77.5l232 559h11l225 -540q12 -30 16 -38.5t16 -30t22 -29t26.5 -15.5t37.5 -9v-15h-246v15q35 2 52 11.5t17 33.5q0 19 -24 79zM458 253l-123 299l-119 -299h242z
M221 714h-13q-1 50 22 86.5t66 36.5q35 0 89 -35q50 -33 68 -33q41 0 52 73h13q1 -50 -21.5 -86t-65.5 -36q-35 0 -89 35q-50 33 -68 33q-42 0 -53 -74z" />
    <glyph glyph-name="Adieresis" unicode="&#xc4;" horiz-adv-x="725" 
d="M470 225h-266l-40 -97q-22 -53 -22 -71q0 -16 12.5 -25.5t26 -12t38.5 -4.5v-15h-202v15q38 4 59 25.5t45 77.5l232 559h11l225 -540q12 -30 16 -38.5t16 -30t22 -29t26.5 -15.5t37.5 -9v-15h-246v15q35 2 52 11.5t17 33.5q0 19 -24 79zM458 253l-123 299l-119 -299h242z
M267 737q-19 0 -32 13.5t-13 32.5t13 32t32 13t32.5 -13t13.5 -32t-13.5 -32.5t-32.5 -13.5zM439 737q-19 0 -32 13.5t-13 32.5t13 32t32 13t32.5 -13t13.5 -32t-13.5 -32.5t-32.5 -13.5z" />
    <glyph glyph-name="Aring" unicode="&#xc5;" horiz-adv-x="725" 
d="M470 225h-266l-40 -97q-22 -53 -22 -71q0 -16 12.5 -25.5t26 -12t38.5 -4.5v-15h-202v15q38 4 59 25.5t45 77.5l232 559h11l225 -540q12 -30 16 -38.5t16 -30t22 -29t26.5 -15.5t37.5 -9v-15h-246v15q35 2 52 11.5t17 33.5q0 19 -24 79zM458 253l-123 299l-119 -299h242z
M261 769q0 39 27.5 66.5t66.5 27.5t66.5 -27.5t27.5 -66.5t-27.5 -66.5t-66.5 -27.5q-40 0 -67 27.5t-27 66.5zM289 769q0 -28 19 -47t47 -19t46.5 19t18.5 47t-18.5 47t-46.5 19t-47 -19t-19 -47z" />
    <glyph glyph-name="AE" unicode="&#xc6;" horiz-adv-x="893" 
d="M418 260h-195l-57 -106q-41 -78 -41 -96q0 -19 15 -29.5t56 -13.5v-15h-197v15q54 0 104 93l211 392q43 80 43 105q0 42 -83 42v15h530l9 -142h-15q-14 73 -40.5 92.5t-99.5 19.5h-162v-271h125q64 0 88 17t28 80h16v-225h-16q-5 63 -28.5 80.5t-87.5 17.5h-125v-251
q0 -30 11 -40t43 -10h128q61 0 94.5 28.5t77.5 103.5h16l-56 -162h-486v15q60 0 77 19.5t17 89.5v136zM416 626l-178 -338h180v338h-2z" />
    <glyph glyph-name="Ccedilla" unicode="&#xc7;" horiz-adv-x="667" 
d="M599 677l15 -225h-12q-23 90 -78 142.5t-144 52.5q-104 0 -171.5 -85.5t-67.5 -242.5q0 -78 22.5 -137.5t60.5 -92.5t81 -49t89 -16q74 0 125.5 34.5t100.5 105.5l12 -9q-46 -85 -110 -127t-157 -43l-12 -41q44 0 69.5 -18.5t25.5 -48.5q0 -42 -33.5 -67.5t-78.5 -25.5
q-31 0 -61 8l3 15q18 -6 39 -6q30 0 48.5 15t18.5 39q0 27 -20 42.5t-53 17.5l23 71q-131 9 -210.5 102.5t-79.5 229.5q0 151 92.5 254.5t241.5 103.5q41 0 78.5 -11.5t60.5 -23t31 -11.5q32 0 37 47h14z" />
    <glyph glyph-name="Egrave" unicode="&#xc8;" horiz-adv-x="612" 
d="M200 632v-271h141q65 0 88.5 17.5t27.5 79.5h15v-225h-15q-6 62 -28.5 80t-87.5 18h-141v-239q0 -35 13 -48.5t50 -13.5h135q61 0 94.5 28.5t77.5 103.5h15l-56 -162h-501v15q60 0 77 20t17 89v422q0 63 -17.5 82t-76.5 19v15h496l9 -145h-16q-14 74 -40.5 94.5
t-99.5 20.5h-177zM166 878h93l58 -169h-14z" />
    <glyph glyph-name="Eacute" unicode="&#xc9;" horiz-adv-x="612" 
d="M200 632v-271h141q65 0 88.5 17.5t27.5 79.5h15v-225h-15q-6 62 -28.5 80t-87.5 18h-141v-239q0 -35 13 -48.5t50 -13.5h135q61 0 94.5 28.5t77.5 103.5h15l-56 -162h-501v15q60 0 77 20t17 89v422q0 63 -17.5 82t-76.5 19v15h496l9 -145h-16q-14 74 -40.5 94.5
t-99.5 20.5h-177zM349 878h93l-137 -169h-13z" />
    <glyph glyph-name="Ecircumflex" unicode="&#xca;" horiz-adv-x="612" 
d="M200 632v-271h141q65 0 88.5 17.5t27.5 79.5h15v-225h-15q-6 62 -28.5 80t-87.5 18h-141v-239q0 -35 13 -48.5t50 -13.5h135q61 0 94.5 28.5t77.5 103.5h15l-56 -162h-501v15q60 0 77 20t17 89v422q0 63 -17.5 82t-76.5 19v15h496l9 -145h-16q-14 74 -40.5 94.5
t-99.5 20.5h-177zM268 865h71l102 -161h-14l-125 108l-124 -108h-13z" />
    <glyph glyph-name="Edieresis" unicode="&#xcb;" horiz-adv-x="612" 
d="M200 632v-271h141q65 0 88.5 17.5t27.5 79.5h15v-225h-15q-6 62 -28.5 80t-87.5 18h-141v-239q0 -35 13 -48.5t50 -13.5h135q61 0 94.5 28.5t77.5 103.5h15l-56 -162h-501v15q60 0 77 20t17 89v422q0 63 -17.5 82t-76.5 19v15h496l9 -145h-16q-14 74 -40.5 94.5
t-99.5 20.5h-177zM210 737q-19 0 -32 13.5t-13 32.5t13 32t32 13t32.5 -13t13.5 -32t-13.5 -32.5t-32.5 -13.5zM382 737q-19 0 -32 13.5t-13 32.5t13 32t32 13t32.5 -13t13.5 -32t-13.5 -32.5t-32.5 -13.5z" />
    <glyph glyph-name="Igrave" unicode="&#xcc;" horiz-adv-x="329" 
d="M204 545v-428q0 -67 16 -84.5t78 -17.5v-15h-266v15q57 0 75.5 19.5t18.5 82.5v428q0 64 -17.5 83t-76.5 19v15h266v-15q-57 0 -75.5 -19t-18.5 -83zM28 878h93l58 -169h-14z" />
    <glyph glyph-name="Iacute" unicode="&#xcd;" horiz-adv-x="329" 
d="M204 545v-428q0 -67 16 -84.5t78 -17.5v-15h-266v15q57 0 75.5 19.5t18.5 82.5v428q0 64 -17.5 83t-76.5 19v15h266v-15q-57 0 -75.5 -19t-18.5 -83zM210 878h93l-137 -169h-13z" />
    <glyph glyph-name="Icircumflex" unicode="&#xce;" horiz-adv-x="329" 
d="M204 545v-428q0 -67 16 -84.5t78 -17.5v-15h-266v15q57 0 75.5 19.5t18.5 82.5v428q0 64 -17.5 83t-76.5 19v15h266v-15q-57 0 -75.5 -19t-18.5 -83zM134 865h71l102 -161h-14l-125 108l-124 -108h-13z" />
    <glyph glyph-name="Idieresis" unicode="&#xcf;" horiz-adv-x="329" 
d="M204 545v-428q0 -67 16 -84.5t78 -17.5v-15h-266v15q57 0 75.5 19.5t18.5 82.5v428q0 64 -17.5 83t-76.5 19v15h266v-15q-57 0 -75.5 -19t-18.5 -83zM77 737q-19 0 -32 13.5t-13 32.5t13 32t32 13t32.5 -13t13.5 -32t-13.5 -32.5t-32.5 -13.5zM249 737q-19 0 -32 13.5
t-13 32.5t13 32t32 13t32.5 -13t13.5 -32t-13.5 -32.5t-32.5 -13.5z" />
    <glyph glyph-name="Eth" unicode="&#xd0;" horiz-adv-x="723" 
d="M122 330h-97v31h97v185q0 63 -18 82t-76 19v15h267q382 0 382 -328q0 -143 -92 -238.5t-258 -95.5h-299v15q61 0 77.5 20t16.5 89v206zM199 361h195v-31h-195v-286q54 -13 112 -13q123 0 196 83.5t73 216.5q0 145 -74.5 222.5t-197.5 77.5q-64 0 -109 -13v-257z" />
    <glyph glyph-name="Ntilde" unicode="&#xd1;" horiz-adv-x="724" 
d="M158 527v-403q0 -69 16 -89t78 -20v-15h-223v15q60 0 77 19t17 90v448q-32 40 -58.5 57.5t-72.5 17.5v15h160l427 -523h2v395q0 74 -17 93.5t-77 19.5v15h223v-15q-58 0 -76 -20.5t-18 -92.5v-545h-16l-440 538h-2zM242 714h-13q-1 50 22 86.5t66 36.5q35 0 89 -35
q50 -33 68 -33q41 0 52 73h13q1 -50 -21.5 -86t-65.5 -36q-35 0 -89 35q-50 33 -68 33q-42 0 -53 -74z" />
    <glyph glyph-name="Ograve" unicode="&#xd2;" horiz-adv-x="722" 
d="M361 -15q-140 0 -229.5 101.5t-89.5 244.5t90 244.5t229 101.5q140 0 229 -100.5t89 -245.5q0 -143 -89.5 -244.5t-228.5 -101.5zM361 14q59 0 103 26.5t69 72.5t36.5 100.5t11.5 117.5t-12 117.5t-36.5 100.5t-68.5 72.5t-103 26.5t-103.5 -27t-69 -73t-36.5 -100.5
t-12 -116.5q0 -63 12 -117.5t37 -100.5t69 -72.5t103 -26.5zM224 878h93l58 -169h-14z" />
    <glyph glyph-name="Oacute" unicode="&#xd3;" horiz-adv-x="722" 
d="M361 -15q-140 0 -229.5 101.5t-89.5 244.5t90 244.5t229 101.5q140 0 229 -100.5t89 -245.5q0 -143 -89.5 -244.5t-228.5 -101.5zM361 14q59 0 103 26.5t69 72.5t36.5 100.5t11.5 117.5t-12 117.5t-36.5 100.5t-68.5 72.5t-103 26.5t-103.5 -27t-69 -73t-36.5 -100.5
t-12 -116.5q0 -63 12 -117.5t37 -100.5t69 -72.5t103 -26.5zM415 878h93l-137 -169h-13z" />
    <glyph glyph-name="Ocircumflex" unicode="&#xd4;" horiz-adv-x="722" 
d="M361 -15q-140 0 -229.5 101.5t-89.5 244.5t90 244.5t229 101.5q140 0 229 -100.5t89 -245.5q0 -143 -89.5 -244.5t-228.5 -101.5zM361 14q59 0 103 26.5t69 72.5t36.5 100.5t11.5 117.5t-12 117.5t-36.5 100.5t-68.5 72.5t-103 26.5t-103.5 -27t-69 -73t-36.5 -100.5
t-12 -116.5q0 -63 12 -117.5t37 -100.5t69 -72.5t103 -26.5zM328 865h71l102 -161h-14l-125 108l-124 -108h-13z" />
    <glyph glyph-name="Otilde" unicode="&#xd5;" horiz-adv-x="722" 
d="M361 -15q-140 0 -229.5 101.5t-89.5 244.5t90 244.5t229 101.5q140 0 229 -100.5t89 -245.5q0 -143 -89.5 -244.5t-228.5 -101.5zM361 14q59 0 103 26.5t69 72.5t36.5 100.5t11.5 117.5t-12 117.5t-36.5 100.5t-68.5 72.5t-103 26.5t-103.5 -27t-69 -73t-36.5 -100.5
t-12 -116.5q0 -63 12 -117.5t37 -100.5t69 -72.5t103 -26.5zM217 714h-13q-1 50 22 86.5t66 36.5q35 0 89 -35q50 -33 68 -33q41 0 52 73h13q1 -50 -21.5 -86t-65.5 -36q-35 0 -89 35q-50 33 -68 33q-42 0 -53 -74z" />
    <glyph glyph-name="Odieresis" unicode="&#xd6;" horiz-adv-x="722" 
d="M361 -15q-140 0 -229.5 101.5t-89.5 244.5t90 244.5t229 101.5q140 0 229 -100.5t89 -245.5q0 -143 -89.5 -244.5t-228.5 -101.5zM361 14q59 0 103 26.5t69 72.5t36.5 100.5t11.5 117.5t-12 117.5t-36.5 100.5t-68.5 72.5t-103 26.5t-103.5 -27t-69 -73t-36.5 -100.5
t-12 -116.5q0 -63 12 -117.5t37 -100.5t69 -72.5t103 -26.5zM277 737q-19 0 -32 13.5t-13 32.5t13 32t32 13t32.5 -13t13.5 -32t-13.5 -32.5t-32.5 -13.5zM449 737q-19 0 -32 13.5t-13 32.5t13 32t32 13t32.5 -13t13.5 -32t-13.5 -32.5t-32.5 -13.5z" />
    <glyph glyph-name="multiply" unicode="&#xd7;" horiz-adv-x="564" 
d="M84 157l175 175l-176 175l23 23l176 -175l176 176l22 -23l-175 -176l175 -176l-23 -23l-176 176l-175 -175z" />
    <glyph glyph-name="Oslash" unicode="&#xd8;" horiz-adv-x="722" 
d="M541 530l-345 -429q59 -87 165 -87q60 0 104.5 27.5t68.5 74.5t35.5 100.5t11.5 114.5q0 120 -40 199zM181 129l347 428q-57 91 -167 91q-60 0 -105 -27.5t-69 -74.5t-35.5 -100.5t-11.5 -114.5q0 -123 41 -202zM650 665l-66 -83q95 -101 95 -251q0 -143 -89 -244.5
t-229 -101.5q-116 0 -200 73l-65 -80l-22 20q2 3 11 14l24.5 30l29.5 37q-97 100 -97 252q0 143 89.5 244.5t229.5 101.5q119 0 203 -76l64 80q4 -4 22 -16z" />
    <glyph glyph-name="Ugrave" unicode="&#xd9;" horiz-adv-x="725" 
d="M113 237v309q0 62 -17.5 81.5t-76.5 19.5v15h266v-15q-58 0 -76 -19t-18 -82v-275q0 -133 40.5 -192t138.5 -59q107 0 158.5 62.5t51.5 192.5v263q0 69 -15 89t-79 20v15h223v-15q-65 0 -79.5 -20t-14.5 -89v-299q0 -115 -60.5 -184.5t-188.5 -69.5q-253 0 -253 252z
M247 878h93l58 -169h-14z" />
    <glyph glyph-name="Uacute" unicode="&#xda;" horiz-adv-x="725" 
d="M113 237v309q0 62 -17.5 81.5t-76.5 19.5v15h266v-15q-58 0 -76 -19t-18 -82v-275q0 -133 40.5 -192t138.5 -59q107 0 158.5 62.5t51.5 192.5v263q0 69 -15 89t-79 20v15h223v-15q-65 0 -79.5 -20t-14.5 -89v-299q0 -115 -60.5 -184.5t-188.5 -69.5q-253 0 -253 252z
M437 878h93l-137 -169h-13z" />
    <glyph glyph-name="Ucircumflex" unicode="&#xdb;" horiz-adv-x="725" 
d="M113 237v309q0 62 -17.5 81.5t-76.5 19.5v15h266v-15q-58 0 -76 -19t-18 -82v-275q0 -133 40.5 -192t138.5 -59q107 0 158.5 62.5t51.5 192.5v263q0 69 -15 89t-79 20v15h223v-15q-65 0 -79.5 -20t-14.5 -89v-299q0 -115 -60.5 -184.5t-188.5 -69.5q-253 0 -253 252z
M354 865h71l102 -161h-14l-125 108l-124 -108h-13z" />
    <glyph glyph-name="Udieresis" unicode="&#xdc;" horiz-adv-x="725" 
d="M113 237v309q0 62 -17.5 81.5t-76.5 19.5v15h266v-15q-58 0 -76 -19t-18 -82v-275q0 -133 40.5 -192t138.5 -59q107 0 158.5 62.5t51.5 192.5v263q0 69 -15 89t-79 20v15h223v-15q-65 0 -79.5 -20t-14.5 -89v-299q0 -115 -60.5 -184.5t-188.5 -69.5q-253 0 -253 252z
M296 737q-19 0 -32 13.5t-13 32.5t13 32t32 13t32.5 -13t13.5 -32t-13.5 -32.5t-32.5 -13.5zM468 737q-19 0 -32 13.5t-13 32.5t13 32t32 13t32.5 -13t13.5 -32t-13.5 -32.5t-32.5 -13.5z" />
    <glyph glyph-name="Yacute" unicode="&#xdd;" horiz-adv-x="724" 
d="M383 313l133 208q34 54 34 80q0 46 -69 46v15h225v-15q-44 0 -75 -24.5t-61 -72.5l-169 -268v-164q0 -66 16 -84.5t78 -18.5v-15h-266v15q57 0 75.5 19.5t18.5 83.5v154l-207 317q-37 56 -95 58v15h268v-15q-37 0 -57 -8t-20 -32q0 -19 21 -54zM427 878h93l-137 -169h-13
z" />
    <glyph glyph-name="Thorn" unicode="&#xde;" horiz-adv-x="557" 
d="M121 117v428q0 66 -17.5 84t-76.5 18v15h266v-15q-58 0 -76 -19t-18 -83v-33h77q116 0 176 -49t60 -134q0 -82 -59.5 -131t-165.5 -49h-88v-32q0 -68 16 -85t78 -17v-15h-266v15q62 0 78 17.5t16 84.5zM199 484v-307h59q76 0 116.5 40t40.5 119q0 148 -198 148h-18z" />
    <glyph glyph-name="germandbls" unicode="&#xdf;" horiz-adv-x="494" 
d="M149 0h-137v15q43 0 56 13t13 54v393q0 219 168 219q74 0 120 -41.5t46 -115.5q0 -104 -91 -136v-2q66 -15 98.5 -67.5t32.5 -125.5q0 -83 -40.5 -147.5t-117.5 -64.5q-37 0 -64 21.5t-27 56.5q0 17 10.5 28t28.5 11q17 0 27 -10.5t10 -27.5q0 -7 -3.5 -15t-3.5 -13
q0 -26 30 -26q27 0 46 24t25.5 52t6.5 57q0 53 -12.5 101.5t-48 88t-88.5 39.5v21q57 -1 84 38t27 101q0 61 -27 92.5t-71 31.5q-48 0 -73 -37.5t-25 -133.5v-494z" />
    <glyph glyph-name="agrave" unicode="&#xe0;" horiz-adv-x="445" 
d="M357 335v-232q0 -38 5.5 -50t18.5 -12q21 0 55 38v-24q-19 -27 -47 -48t-49 -21q-23 0 -37 19.5t-14 54.5q-50 -42 -79.5 -58t-64.5 -16q-47 0 -75.5 30t-28.5 82q0 59 57 101t191 92q0 35 -2 55.5t-9.5 44t-25.5 34.5t-47 11q-34 0 -54 -17.5t-20 -46.5q0 -68 -40 -68
q-17 0 -26.5 11.5t-9.5 29.5q0 45 45 80.5t119 35.5q66 0 102 -33t36 -93zM289 90v175q-92 -33 -135 -68t-43 -79q0 -37 20.5 -59t49.5 -22q23 0 44.5 10.5t63.5 42.5zM78 682h93l58 -169h-14z" />
    <glyph glyph-name="aacute" unicode="&#xe1;" horiz-adv-x="445" 
d="M357 335v-232q0 -38 5.5 -50t18.5 -12q21 0 55 38v-24q-19 -27 -47 -48t-49 -21q-23 0 -37 19.5t-14 54.5q-50 -42 -79.5 -58t-64.5 -16q-47 0 -75.5 30t-28.5 82q0 59 57 101t191 92q0 35 -2 55.5t-9.5 44t-25.5 34.5t-47 11q-34 0 -54 -17.5t-20 -46.5q0 -68 -40 -68
q-17 0 -26.5 11.5t-9.5 29.5q0 45 45 80.5t119 35.5q66 0 102 -33t36 -93zM289 90v175q-92 -33 -135 -68t-43 -79q0 -37 20.5 -59t49.5 -22q23 0 44.5 10.5t63.5 42.5zM262 682h93l-137 -169h-13z" />
    <glyph glyph-name="acircumflex" unicode="&#xe2;" horiz-adv-x="445" 
d="M357 335v-232q0 -38 5.5 -50t18.5 -12q21 0 55 38v-24q-19 -27 -47 -48t-49 -21q-23 0 -37 19.5t-14 54.5q-50 -42 -79.5 -58t-64.5 -16q-47 0 -75.5 30t-28.5 82q0 59 57 101t191 92q0 35 -2 55.5t-9.5 44t-25.5 34.5t-47 11q-34 0 -54 -17.5t-20 -46.5q0 -68 -40 -68
q-17 0 -26.5 11.5t-9.5 29.5q0 45 45 80.5t119 35.5q66 0 102 -33t36 -93zM289 90v175q-92 -33 -135 -68t-43 -79q0 -37 20.5 -59t49.5 -22q23 0 44.5 10.5t63.5 42.5zM175 677h71l102 -161h-14l-125 108l-124 -108h-13z" />
    <glyph glyph-name="atilde" unicode="&#xe3;" horiz-adv-x="445" 
d="M357 335v-232q0 -38 5.5 -50t18.5 -12q21 0 55 38v-24q-19 -27 -47 -48t-49 -21q-23 0 -37 19.5t-14 54.5q-50 -42 -79.5 -58t-64.5 -16q-47 0 -75.5 30t-28.5 82q0 59 57 101t191 92q0 35 -2 55.5t-9.5 44t-25.5 34.5t-47 11q-34 0 -54 -17.5t-20 -46.5q0 -68 -40 -68
q-17 0 -26.5 11.5t-9.5 29.5q0 45 45 80.5t119 35.5q66 0 102 -33t36 -93zM289 90v175q-92 -33 -135 -68t-43 -79q0 -37 20.5 -59t49.5 -22q23 0 44.5 10.5t63.5 42.5zM73 535h-13q-1 50 22 86.5t66 36.5q35 0 89 -35q50 -33 68 -33q41 0 52 73h13q1 -50 -21.5 -86
t-65.5 -36q-35 0 -89 35q-50 33 -68 33q-42 0 -53 -74z" />
    <glyph glyph-name="adieresis" unicode="&#xe4;" horiz-adv-x="445" 
d="M357 335v-232q0 -38 5.5 -50t18.5 -12q21 0 55 38v-24q-19 -27 -47 -48t-49 -21q-23 0 -37 19.5t-14 54.5q-50 -42 -79.5 -58t-64.5 -16q-47 0 -75.5 30t-28.5 82q0 59 57 101t191 92q0 35 -2 55.5t-9.5 44t-25.5 34.5t-47 11q-34 0 -54 -17.5t-20 -46.5q0 -68 -40 -68
q-17 0 -26.5 11.5t-9.5 29.5q0 45 45 80.5t119 35.5q66 0 102 -33t36 -93zM289 90v175q-92 -33 -135 -68t-43 -79q0 -37 20.5 -59t49.5 -22q23 0 44.5 10.5t63.5 42.5zM124 559q-19 0 -32 13.5t-13 32.5t13 32t32 13t32.5 -13t13.5 -32t-13.5 -32.5t-32.5 -13.5zM296 559
q-19 0 -32 13.5t-13 32.5t13 32t32 13t32.5 -13t13.5 -32t-13.5 -32.5t-32.5 -13.5z" />
    <glyph glyph-name="aring" unicode="&#xe5;" horiz-adv-x="445" 
d="M357 335v-232q0 -38 5.5 -50t18.5 -12q21 0 55 38v-24q-19 -27 -47 -48t-49 -21q-23 0 -37 19.5t-14 54.5q-50 -42 -79.5 -58t-64.5 -16q-47 0 -75.5 30t-28.5 82q0 59 57 101t191 92q0 35 -2 55.5t-9.5 44t-25.5 34.5t-47 11q-34 0 -54 -17.5t-20 -46.5q0 -68 -40 -68
q-17 0 -26.5 11.5t-9.5 29.5q0 45 45 80.5t119 35.5q66 0 102 -33t36 -93zM289 90v175q-92 -33 -135 -68t-43 -79q0 -37 20.5 -59t49.5 -22q23 0 44.5 10.5t63.5 42.5zM124 599q0 39 27.5 66.5t66.5 27.5t66.5 -27.5t27.5 -66.5t-27.5 -66.5t-66.5 -27.5q-40 0 -67 27.5
t-27 66.5zM152 599q0 -28 19 -47t47 -19t46.5 19t18.5 47t-18.5 47t-46.5 19t-47 -19t-19 -47z" />
    <glyph glyph-name="ae" unicode="&#xe6;" horiz-adv-x="672" 
d="M35 100q0 55 50.5 99t195.5 95v26q0 64 -19 90t-63 26q-73 0 -73 -64q0 -68 -40 -68q-17 0 -27 12.5t-10 32.5q0 41 43 76.5t119 35.5q100 0 130 -62q42 62 130 62q78 0 120.5 -51t42.5 -132h-286v-58q0 -92 33.5 -132.5t99.5 -40.5q96 0 136 125l17 -10
q-19 -78 -62 -127.5t-115 -49.5q-52 0 -87 19t-63 60q-48 -40 -84 -59t-79 -19q-56 0 -82.5 33t-26.5 81zM296 87q-15 36 -15 180q-177 -66 -177 -146q0 -85 73 -85q29 0 53.5 11t65.5 40zM349 305h199q0 126 -101 126q-39 0 -67.5 -33.5t-30.5 -92.5z" />
    <glyph glyph-name="ccedilla" unicode="&#xe7;" horiz-adv-x="445" 
d="M395 178l14 -6q-12 -76 -57 -128.5t-114 -56.5l-12 -43q44 0 69.5 -18.5t25.5 -48.5q0 -42 -33.5 -67.5t-78.5 -25.5q-31 0 -61 8l3 15q18 -6 39 -6q30 0 48.5 15t18.5 39q0 27 -20 42.5t-53 17.5l23 72q-73 8 -119 72.5t-46 166.5q0 105 58.5 170t147.5 65
q59 0 103 -31.5t44 -72.5q0 -18 -11 -29.5t-31 -11.5q-42 0 -48 53q-5 63 -71 63q-60 0 -96 -47t-36 -122q0 -96 44 -155.5t108 -59.5q52 0 88 35t53 95z" />
    <glyph glyph-name="egrave" unicode="&#xe8;" horiz-adv-x="450" 
d="M412 278h-315q0 -109 42.5 -168t113.5 -59q105 0 144 121l13 -7q-14 -76 -61 -127.5t-116 -51.5q-85 0 -140 65t-55 165q0 110 55.5 177.5t146.5 67.5q78 0 125 -51t47 -132zM98 305h230q-1 60 -31 93.5t-78 33.5q-46 0 -82 -36t-39 -91zM95 682h93l58 -169h-14z" />
    <glyph glyph-name="eacute" unicode="&#xe9;" horiz-adv-x="450" 
d="M412 278h-315q0 -109 42.5 -168t113.5 -59q105 0 144 121l13 -7q-14 -76 -61 -127.5t-116 -51.5q-85 0 -140 65t-55 165q0 110 55.5 177.5t146.5 67.5q78 0 125 -51t47 -132zM98 305h230q-1 60 -31 93.5t-78 33.5q-46 0 -82 -36t-39 -91zM278 683h93l-137 -169h-13z" />
    <glyph glyph-name="ecircumflex" unicode="&#xea;" horiz-adv-x="450" 
d="M412 278h-315q0 -109 42.5 -168t113.5 -59q105 0 144 121l13 -7q-14 -76 -61 -127.5t-116 -51.5q-85 0 -140 65t-55 165q0 110 55.5 177.5t146.5 67.5q78 0 125 -51t47 -132zM98 305h230q-1 60 -31 93.5t-78 33.5q-46 0 -82 -36t-39 -91zM196 677h71l102 -161h-14
l-125 108l-124 -108h-13z" />
    <glyph glyph-name="edieresis" unicode="&#xeb;" horiz-adv-x="450" 
d="M412 278h-315q0 -109 42.5 -168t113.5 -59q105 0 144 121l13 -7q-14 -76 -61 -127.5t-116 -51.5q-85 0 -140 65t-55 165q0 110 55.5 177.5t146.5 67.5q78 0 125 -51t47 -132zM98 305h230q-1 60 -31 93.5t-78 33.5q-46 0 -82 -36t-39 -91zM138 559q-19 0 -32 13.5
t-13 32.5t13 32t32 13t32.5 -13t13.5 -32t-13.5 -32.5t-32.5 -13.5zM310 559q-19 0 -32 13.5t-13 32.5t13 32t32 13t32.5 -13t13.5 -32t-13.5 -32.5t-32.5 -13.5z" />
    <glyph glyph-name="igrave" unicode="&#xec;" horiz-adv-x="278" 
d="M178 461v-379q0 -38 14.5 -52t55.5 -15v-15h-208v15q40 1 54.5 14.5t14.5 52.5v263q0 35 -7.5 46.5t-27.5 11.5q-17 0 -37 -9l-6 13l132 54h15zM-7 682h93l58 -169h-14z" />
    <glyph glyph-name="iacute" unicode="&#xed;" horiz-adv-x="278" 
d="M178 461v-379q0 -38 14.5 -52t55.5 -15v-15h-208v15q40 1 54.5 14.5t14.5 52.5v263q0 35 -7.5 46.5t-27.5 11.5q-17 0 -37 -9l-6 13l132 54h15zM171 682h93l-137 -169h-13z" />
    <glyph glyph-name="icircumflex" unicode="&#xee;" horiz-adv-x="278" 
d="M178 461v-379q0 -38 14.5 -52t55.5 -15v-15h-208v15q40 1 54.5 14.5t14.5 52.5v263q0 35 -7.5 46.5t-27.5 11.5q-17 0 -37 -9l-6 13l132 54h15zM99 677h71l102 -161h-14l-125 108l-124 -108h-13z" />
    <glyph glyph-name="idieresis" unicode="&#xef;" horiz-adv-x="278" 
d="M178 461v-379q0 -38 14.5 -52t55.5 -15v-15h-208v15q40 1 54.5 14.5t14.5 52.5v263q0 35 -7.5 46.5t-27.5 11.5q-17 0 -37 -9l-6 13l132 54h15zM42 559q-19 0 -32 13.5t-13 32.5t13 32t32 13t32.5 -13t13.5 -32t-13.5 -32.5t-32.5 -13.5zM214 559q-19 0 -32 13.5
t-13 32.5t13 32t32 13t32.5 -13t13.5 -32t-13.5 -32.5t-32.5 -13.5z" />
    <glyph glyph-name="eth" unicode="&#xf0;" horiz-adv-x="504" 
d="M234 576l-131 -73l-13 21l127 73q-15 17 -39.5 36.5t-41.5 30.5l-18 12l13 17q56 -27 118 -78l136 75l15 -22l-127 -71q82 -68 135 -164t53 -194q0 -111 -57.5 -182t-158.5 -71q-82 0 -143 70.5t-61 162.5q0 96 59 169t150 73q45 0 74 -27l2 2q-20 41 -43 76t-36 50z
M241 432q-53 0 -88 -47t-35 -125q0 -110 42.5 -178t105.5 -68q54 0 86 48t32 130q0 111 -39.5 175.5t-103.5 64.5z" />
    <glyph glyph-name="ntilde" unicode="&#xf1;" horiz-adv-x="503" 
d="M157 461v-97q87 97 159 97q50 0 78 -35.5t28 -107.5v-236q0 -39 14.5 -52.5t57.5 -14.5v-15h-211v15q42 1 56.5 14t14.5 53v218q0 110 -73 110q-54 0 -124 -72v-256q0 -41 13.5 -54t57.5 -13v-15h-210v15q42 0 56.5 13.5t14.5 53.5v254q0 39 -8.5 52.5t-29.5 13.5
q-15 0 -35 -8l-6 13l132 54h15zM110 535h-13q-1 50 22 86.5t66 36.5q35 0 89 -35q50 -33 68 -33q41 0 52 73h13q1 -50 -21.5 -86t-65.5 -36q-35 0 -89 35q-50 33 -68 33q-42 0 -53 -74z" />
    <glyph glyph-name="ograve" unicode="&#xf2;" 
d="M251 461q84 0 147 -66t63 -161q0 -58 -20 -112t-70.5 -95t-122.5 -41q-83 0 -145 69.5t-62 163.5q0 101 61 171.5t149 70.5zM241 432q-52 0 -87.5 -46.5t-35.5 -125.5q0 -107 41.5 -176t108.5 -69q61 0 88.5 53t27.5 123q0 117 -40.5 179t-102.5 62zM104 682h93l58 -169
h-14z" />
    <glyph glyph-name="oacute" unicode="&#xf3;" 
d="M251 461q84 0 147 -66t63 -161q0 -58 -20 -112t-70.5 -95t-122.5 -41q-83 0 -145 69.5t-62 163.5q0 101 61 171.5t149 70.5zM241 432q-52 0 -87.5 -46.5t-35.5 -125.5q0 -107 41.5 -176t108.5 -69q61 0 88.5 53t27.5 123q0 117 -40.5 179t-102.5 62zM292 682h93
l-137 -169h-13z" />
    <glyph glyph-name="ocircumflex" unicode="&#xf4;" 
d="M251 461q84 0 147 -66t63 -161q0 -58 -20 -112t-70.5 -95t-122.5 -41q-83 0 -145 69.5t-62 163.5q0 101 61 171.5t149 70.5zM241 432q-52 0 -87.5 -46.5t-35.5 -125.5q0 -107 41.5 -176t108.5 -69q61 0 88.5 53t27.5 123q0 117 -40.5 179t-102.5 62zM219 677h71l102 -161
h-14l-125 108l-124 -108h-13z" />
    <glyph glyph-name="otilde" unicode="&#xf5;" 
d="M251 461q84 0 147 -66t63 -161q0 -58 -20 -112t-70.5 -95t-122.5 -41q-83 0 -145 69.5t-62 163.5q0 101 61 171.5t149 70.5zM241 432q-52 0 -87.5 -46.5t-35.5 -125.5q0 -107 41.5 -176t108.5 -69q61 0 88.5 53t27.5 123q0 117 -40.5 179t-102.5 62zM109 535h-13
q-1 50 22 86.5t66 36.5q35 0 89 -35q50 -33 68 -33q41 0 52 73h13q1 -50 -21.5 -86t-65.5 -36q-35 0 -89 35q-50 33 -68 33q-42 0 -53 -74z" />
    <glyph glyph-name="odieresis" unicode="&#xf6;" 
d="M251 461q84 0 147 -66t63 -161q0 -58 -20 -112t-70.5 -95t-122.5 -41q-83 0 -145 69.5t-62 163.5q0 101 61 171.5t149 70.5zM241 432q-52 0 -87.5 -46.5t-35.5 -125.5q0 -107 41.5 -176t108.5 -69q61 0 88.5 53t27.5 123q0 117 -40.5 179t-102.5 62zM164 559
q-19 0 -32 13.5t-13 32.5t13 32t32 13t32.5 -13t13.5 -32t-13.5 -32.5t-32.5 -13.5zM336 559q-19 0 -32 13.5t-13 32.5t13 32t32 13t32.5 -13t13.5 -32t-13.5 -32.5t-32.5 -13.5z" />
    <glyph glyph-name="divide" unicode="&#xf7;" horiz-adv-x="564" 
d="M545 315h-525v33h525v-33zM282 143q-16 0 -27.5 11.5t-11.5 27.5t11.5 27.5t27.5 11.5t27.5 -11.5t11.5 -27.5t-11.5 -27.5t-27.5 -11.5zM282 443q-16 0 -27.5 11.5t-11.5 27.5t11.5 27.5t27.5 11.5t27.5 -11.5t11.5 -27.5t-11.5 -27.5t-27.5 -11.5z" />
    <glyph glyph-name="oslash" unicode="&#xf8;" 
d="M41 219q0 98 58 170t152 72q82 0 141 -61l68 75l18 -15l-70 -77q53 -64 53 -149q0 -42 -12 -83.5t-36.5 -79.5t-68 -61.5t-99.5 -23.5q-81 0 -138 62l-69 -78l-16 17l70 79q-51 65 -51 153zM118 260q0 -77 24 -140l211 236q-37 76 -119 76q-45 0 -80.5 -41.5
t-35.5 -130.5zM384 191q0 83 -21 141l-211 -235q42 -82 116 -82q61 0 88.5 53t27.5 123z" />
    <glyph glyph-name="ugrave" unicode="&#xf9;" horiz-adv-x="497" 
d="M409 447v-343q0 -34 7.5 -46t28.5 -12q20 0 35 6l5 -14l-128 -52h-16v94q-84 -94 -158 -94q-52 0 -80 36t-28 101v231q0 47 -13 62t-61 16v15h142v-321q0 -92 75 -92q27 0 62.5 23t60.5 49v248q0 47 -13 62t-61 16v15h142zM74 682h93l58 -169h-14z" />
    <glyph glyph-name="uacute" unicode="&#xfa;" horiz-adv-x="497" 
d="M409 447v-343q0 -34 7.5 -46t28.5 -12q20 0 35 6l5 -14l-128 -52h-16v94q-84 -94 -158 -94q-52 0 -80 36t-28 101v231q0 47 -13 62t-61 16v15h142v-321q0 -92 75 -92q27 0 62.5 23t60.5 49v248q0 47 -13 62t-61 16v15h142zM264 682h93l-137 -169h-13z" />
    <glyph glyph-name="ucircumflex" unicode="&#xfb;" horiz-adv-x="497" 
d="M409 447v-343q0 -34 7.5 -46t28.5 -12q20 0 35 6l5 -14l-128 -52h-16v94q-84 -94 -158 -94q-52 0 -80 36t-28 101v231q0 47 -13 62t-61 16v15h142v-321q0 -92 75 -92q27 0 62.5 23t60.5 49v248q0 47 -13 62t-61 16v15h142zM196 677h71l102 -161h-14l-125 108l-124 -108
h-13z" />
    <glyph glyph-name="udieresis" unicode="&#xfc;" horiz-adv-x="497" 
d="M409 447v-343q0 -34 7.5 -46t28.5 -12q20 0 35 6l5 -14l-128 -52h-16v94q-84 -94 -158 -94q-52 0 -80 36t-28 101v231q0 47 -13 62t-61 16v15h142v-321q0 -92 75 -92q27 0 62.5 23t60.5 49v248q0 47 -13 62t-61 16v15h142zM138 559q-19 0 -32 13.5t-13 32.5t13 32t32 13
t32.5 -13t13.5 -32t-13.5 -32.5t-32.5 -13.5zM310 559q-19 0 -32 13.5t-13 32.5t13 32t32 13t32.5 -13t13.5 -32t-13.5 -32.5t-32.5 -13.5z" />
    <glyph glyph-name="yacute" unicode="&#xfd;" horiz-adv-x="503" 
d="M252 17l-163 347q-18 38 -33 51t-45 17v15h203v-15q-31 0 -43 -8t-12 -26q0 -13 22 -63l108 -226l101 247q12 29 12 48q0 28 -45 28v15h138v-15q-40 0 -62 -52l-194 -473q-26 -64 -65 -93.5t-72 -29.5q-27 0 -44 13t-17 34q0 19 13 30t33 11q16 0 35.5 -9t27.5 -9
q21 0 38 21.5t38 75.5zM336 682h93l-137 -169h-13z" />
    <glyph glyph-name="thorn" unicode="&#xfe;" 
d="M148 694v-325h2q23 40 62.5 66t84.5 26q68 0 113 -59t45 -164q0 -115 -56.5 -183.5t-142.5 -68.5q-33 0 -63 13.5t-45 38.5v-169q0 -42 15 -54t62 -13v-15h-223v15q46 1 61.5 13t15.5 54v707q0 36 -7 48t-27 12q-18 0 -38 -8l-6 13l130 53h17zM148 332v-196
q0 -62 29 -92.5t80 -30.5q54 0 92.5 52t38.5 138q0 99 -36.5 151t-92.5 52q-59 0 -111 -74z" />
    <glyph glyph-name="ydieresis" unicode="&#xff;" horiz-adv-x="503" 
d="M252 17l-163 347q-18 38 -33 51t-45 17v15h203v-15q-31 0 -43 -8t-12 -26q0 -13 22 -63l108 -226l101 247q12 29 12 48q0 28 -45 28v15h138v-15q-40 0 -62 -52l-194 -473q-26 -64 -65 -93.5t-72 -29.5q-27 0 -44 13t-17 34q0 19 13 30t33 11q16 0 35.5 -9t27.5 -9
q21 0 38 21.5t38 75.5zM194 559q-19 0 -32 13.5t-13 32.5t13 32t32 13t32.5 -13t13.5 -32t-13.5 -32.5t-32.5 -13.5zM366 559q-19 0 -32 13.5t-13 32.5t13 32t32 13t32.5 -13t13.5 -32t-13.5 -32.5t-32.5 -13.5z" />
    <glyph glyph-name="dotlessi" unicode="&#x131;" horiz-adv-x="278" 
d="M178 461v-379q0 -38 14.5 -52t55.5 -15v-15h-208v15q40 1 54.5 14.5t14.5 52.5v263q0 35 -7.5 46.5t-27.5 11.5q-17 0 -37 -9l-6 13l132 54h15z" />
    <glyph glyph-name="Lslash" unicode="&#x141;" horiz-adv-x="613" 
d="M200 542v-161l120 99v-36l-120 -100v-221q0 -53 10 -69.5t36 -16.5h159q61 0 100 33t70 113l15 -3l-57 -180h-504v15q58 0 76 19.5t18 86.5v159l-109 -91v36l109 91v231q0 65 -18 83.5t-76 18.5v13h282v-13q-72 0 -91.5 -18.5t-19.5 -88.5z" />
    <glyph glyph-name="lslash" unicode="&#x142;" horiz-adv-x="278" 
d="M178 694v-305l93 77v-35l-93 -77v-272q0 -41 16 -53.5t55 -13.5v-15h-210v15q39 1 54.5 13.5t15.5 53.5v215l-93 -77v35l93 77v245q0 35 -7.5 47t-26.5 12q-22 0 -38 -8l-6 13l130 53h17z" />
    <glyph glyph-name="OE" unicode="&#x152;" horiz-adv-x="889" 
d="M529 632v-271h88q64 0 88.5 17t28.5 80h15v-225h-15q-6 63 -29.5 80.5t-87.5 17.5h-88v-248q0 -30 11.5 -41.5t42.5 -11.5h92q61 0 94.5 28.5t77.5 103.5h15l-56 -162h-339q-25 0 -61.5 -3.5t-59.5 -3.5q-128 0 -211.5 101t-83.5 239q0 139 84.5 237.5t220.5 98.5
q21 0 67 -3.5t77 -3.5h301l9 -142h-16q-14 73 -40 92.5t-100 19.5h-125zM452 168v383q0 89 -94 89q-58 0 -101 -28t-65.5 -75t-33 -98t-10.5 -107q0 -52 11 -103.5t33 -99.5t63.5 -77.5t95.5 -29.5q60 0 80.5 29t20.5 117z" />
    <glyph glyph-name="oe" unicode="&#x153;" horiz-adv-x="732" 
d="M694 278h-275q7 -226 132 -226q94 0 128 120l15 -8q-33 -178 -168 -178q-92 0 -134 79q-51 -79 -151 -79q-81 0 -140 70.5t-59 161.5q0 103 56.5 173t143.5 70q47 0 88 -22.5t62 -60.5q48 83 140 83q75 0 118.5 -49.5t43.5 -133.5zM231 432q-51 0 -81.5 -43t-30.5 -129
q0 -105 35 -175t101 -70q102 0 102 170q0 127 -37.5 187t-88.5 60zM420 305h189q0 58 -25.5 92t-71.5 34q-39 0 -64 -37.5t-28 -88.5z" />
    <glyph glyph-name="Scaron" unicode="&#x160;" horiz-adv-x="551" 
d="M453 677v-229h-14q-6 83 -56 141t-129 58q-51 0 -87 -31.5t-36 -76.5q0 -44 37.5 -80t91.5 -62.5l108 -54.5t91.5 -71t37.5 -98q0 -81 -55 -134.5t-150 -53.5q-54 0 -105 18.5t-71 18.5q-26 0 -30 -37h-14v227h14q6 -55 28 -95.5t53 -61t60 -30t56 -9.5q62 0 100.5 31
t38.5 86q0 34 -19.5 62.5t-51 49t-69.5 39.5l-76 39.5t-69.5 44t-51 58.5t-19.5 78q0 75 55.5 124t136.5 49q43 0 91 -19t56 -19q27 0 34 38h14zM314 714h-82l-92 161h12l121 -109l121 109h12z" />
    <glyph glyph-name="scaron" unicode="&#x161;" horiz-adv-x="389" 
d="M321 461v-153h-15q-5 54 -36 90.5t-85 36.5q-32 0 -55.5 -18.5t-23.5 -49.5q0 -32 25.5 -55t61.5 -39t72 -34t61.5 -49.5t25.5 -75.5q0 -59 -43 -93.5t-106 -34.5q-36 0 -71.5 10t-43.5 10q-15 0 -18 -13h-15v160h15q6 -60 42 -100.5t95 -40.5q35 0 58 20t23 54
q0 35 -24 59.5t-58.5 40.5l-69 33t-58.5 45.5t-24 69.5q0 57 38 92t98 35q21 0 51.5 -9.5t43.5 -9.5q14 0 21 19h15zM235 516h-82l-92 161h12l121 -109l121 109h12z" />
    <glyph glyph-name="Ydieresis" unicode="&#x178;" horiz-adv-x="724" 
d="M383 313l133 208q34 54 34 80q0 46 -69 46v15h225v-15q-44 0 -75 -24.5t-61 -72.5l-169 -268v-164q0 -66 16 -84.5t78 -18.5v-15h-266v15q57 0 75.5 19.5t18.5 83.5v154l-207 317q-37 56 -95 58v15h268v-15q-37 0 -57 -8t-20 -32q0 -19 21 -54zM293 737q-19 0 -32 13.5
t-13 32.5t13 32t32 13t32.5 -13t13.5 -32t-13.5 -32.5t-32.5 -13.5zM465 737q-19 0 -32 13.5t-13 32.5t13 32t32 13t32.5 -13t13.5 -32t-13.5 -32.5t-32.5 -13.5z" />
    <glyph glyph-name="Zcaron" unicode="&#x17d;" horiz-adv-x="610" 
d="M126 35h278q66 0 95 30.5t58 109.5h15l-31 -175h-522v18l429 609h-206q-78 0 -108.5 -26t-41.5 -105h-15l14 166h476zM375 714h-82l-92 161h12l121 -109l121 109h12z" />
    <glyph glyph-name="zcaron" unicode="&#x17e;" horiz-adv-x="439" 
d="M409 132l-7 -132h-379v15l300 403h-138q-66 0 -86.5 -13.5t-26.5 -76.5h-15v119h359v-15l-297 -402h151q72 0 94.5 16.5t29.5 85.5h15zM279 516h-82l-92 161h12l121 -109l121 109h12z" />
    <glyph glyph-name="florin" unicode="&#x192;" horiz-adv-x="502" 
d="M336 434h96l-7 -27h-95q-22 -126 -81 -340q-36 -128 -61 -178q-52 -105 -127 -105q-25 0 -42 14t-17 38q0 18 11 31t26 13q13 0 21.5 -8t8.5 -19q0 -9 -7 -19t-7 -13q0 -14 16 -14q55 0 85 140q70 334 104 460h-87l6 27q56 0 74.5 15.5t38.5 74.5q1 4 7.5 21.5t8.5 23.5
t8.5 22.5t10 23.5t11 20.5t13.5 19.5l15.5 15t18.5 13.5t20.5 7.5t23.5 3q28 0 48.5 -15t20.5 -41q0 -15 -9 -26t-24 -11q-11 0 -20 8.5t-9 18.5q0 7 5 16t5 14q0 16 -18 16q-53 0 -71 -117z" />
    <glyph glyph-name="circumflex" unicode="&#x2c6;" horiz-adv-x="333" 
d="M131 712h71l102 -161h-14l-125 108l-124 -108h-13z" />
    <glyph glyph-name="caron" unicode="&#x2c7;" horiz-adv-x="333" 
d="M207 551h-82l-92 161h12l121 -109l121 109h12z" />
    <glyph glyph-name="breve" unicode="&#x2d8;" horiz-adv-x="333" 
d="M28 673h13q15 -34 50 -53.5t75 -19.5t74.5 19.5t49.5 53.5h14q-1 -54 -41 -91.5t-97 -37.5q-58 0 -98 37t-40 92z" />
    <glyph glyph-name="dotaccent" unicode="&#x2d9;" horiz-adv-x="333" 
d="M120 602q0 19 14 32.5t33 13.5t32.5 -13.5t13.5 -32.5t-14 -33t-32 -14q-19 0 -33 14t-14 33z" />
    <glyph glyph-name="ring" unicode="&#x2da;" horiz-adv-x="333" 
d="M73 599q0 39 27.5 66.5t66.5 27.5t66.5 -27.5t27.5 -66.5t-27.5 -66.5t-66.5 -27.5q-40 0 -67 27.5t-27 66.5zM101 599q0 -28 19 -47t47 -19t46.5 19t18.5 47t-18.5 47t-46.5 19t-47 -19t-19 -47z" />
    <glyph glyph-name="ogonek" unicode="&#x2db;" horiz-adv-x="333" 
d="M115 8h20q-15 -27 -15 -54q0 -42 29 -67t77 -25q29 0 62 12l8 -12q-55 -36 -113 -36q-45 0 -76 23t-31 65q0 26 11 52.5t28 41.5z" />
    <glyph glyph-name="tilde" unicode="&#x2dc;" horiz-adv-x="333" 
d="M25 538h-13q-1 50 22 86.5t66 36.5q35 0 89 -35q50 -33 68 -33q41 0 52 73h13q1 -50 -21.5 -86t-65.5 -36q-35 0 -89 35q-50 33 -68 33q-42 0 -53 -74z" />
    <glyph glyph-name="hungarumlaut" unicode="&#x2dd;" horiz-adv-x="333" 
d="M83 715h79l-101 -169h-13zM234 715h80l-100 -169h-12z" />
    <glyph glyph-name="endash" unicode="&#x2013;" 
d="M509 223h-518v34h518v-34z" />
    <glyph glyph-name="emdash" unicode="&#x2014;" horiz-adv-x="1000" 
d="M1009 223h-1018v34h1018v-34z" />
    <glyph glyph-name="quoteleft" unicode="&#x2018;" horiz-adv-x="327" 
d="M217 677v-19q-36 -15 -59 -43t-23 -60q0 -29 19 -29q4 0 14 3.5t16 3.5q18 0 30.5 -13t12.5 -31q0 -23 -16 -36t-40 -13q-29 0 -50 24.5t-21 59.5q0 51 32.5 94t84.5 59z" />
    <glyph glyph-name="quoteright" unicode="&#x2019;" horiz-adv-x="327" 
d="M111 440v19q36 14 59 43t23 60q0 29 -19 29q-5 0 -14.5 -3.5t-15.5 -3.5q-19 0 -31 13t-12 31q0 23 16 36t40 13q29 0 50 -24.5t21 -59.5q0 -51 -32.5 -94t-84.5 -59z" />
    <glyph glyph-name="quotesinglbase" unicode="&#x201a;" horiz-adv-x="327" 
d="M111 -146v18q36 14 59 43t23 61q0 29 -19 29q-5 0 -14.5 -3.5t-15.5 -3.5q-19 0 -31 13t-12 31q0 23 16 36t40 13q29 0 50 -25t21 -60q0 -50 -32.5 -93t-84.5 -59z" />
    <glyph glyph-name="quotedblleft" unicode="&#x201c;" horiz-adv-x="451" 
d="M165 677v-19q-36 -15 -59 -43t-23 -60q0 -29 19 -29q5 0 14.5 3.5t15.5 3.5q18 0 30.5 -13t12.5 -31q0 -23 -16 -36t-40 -13q-29 0 -50 24.5t-21 59.5q0 51 32.5 94t84.5 59zM395 677v-19q-36 -15 -59 -43t-23 -60q0 -29 19 -29q4 0 14 3.5t16 3.5q18 0 30.5 -13
t12.5 -31q0 -23 -16 -36t-40 -13q-29 0 -50 24.5t-21 59.5q0 51 32.5 94t84.5 59z" />
    <glyph glyph-name="quotedblright" unicode="&#x201d;" horiz-adv-x="451" 
d="M290 440v19q36 14 59 43t23 60q0 29 -19 29q-4 0 -14 -3.5t-16 -3.5q-18 0 -30.5 13t-12.5 31q0 23 16 36t40 13q29 0 50 -24.5t21 -59.5q0 -51 -32.5 -94t-84.5 -59zM55 440v19q36 14 59.5 43t23.5 60q0 29 -20 29q-4 0 -14 -3.5t-16 -3.5q-18 0 -30 13t-12 31
q0 23 15.5 36t39.5 13q29 0 50 -24.5t21 -59.5q0 -51 -32.5 -94t-84.5 -59z" />
    <glyph glyph-name="quotedblbase" unicode="&#x201e;" horiz-adv-x="451" 
d="M290 -146v18q36 14 59 43t23 61q0 29 -19 29q-4 0 -14 -3.5t-16 -3.5q-18 0 -30.5 13t-12.5 31q0 23 16 36t40 13q29 0 50 -25t21 -60q0 -50 -32.5 -93t-84.5 -59zM55 -146v18q36 15 59.5 43.5t23.5 60.5q0 29 -20 29q-4 0 -14 -3.5t-16 -3.5q-18 0 -30 13t-12 31
q0 23 15.5 36t39.5 13q29 0 50 -25t21 -60q0 -50 -32.5 -93t-84.5 -59z" />
    <glyph glyph-name="dagger" unicode="&#x2020;" 
d="M259 -197h-18q0 127 -1.5 189.5t-11.5 161.5t-31 177q40 28 43 114q-25 0 -71.5 -17t-70.5 -17q-21 0 -35 11.5t-14 32.5q0 20 14 31.5t35 11.5q24 0 70.5 -16.5t71.5 -16.5q0 28 -19.5 83.5t-19.5 86.5q0 24 13 41.5t36 17.5t36 -17.5t13 -41.5q0 -32 -19.5 -87
t-19.5 -83q25 0 72 16.5t70 16.5q20 0 34.5 -11.5t14.5 -31.5t-14.5 -32t-34.5 -12q-22 0 -69.5 17t-72.5 17q2 -44 10 -70t33 -44q-21 -78 -31 -177t-11.5 -161.5t-1.5 -189.5z" />
    <glyph glyph-name="daggerdbl" unicode="&#x2021;" 
d="M259 495q25 0 64 17t61 17q21 0 34.5 -11.5t13.5 -30.5q0 -18 -13.5 -30t-34.5 -12q-22 0 -61 17t-64 17q2 -34 11 -50.5t31 -33.5q-17 -25 -27.5 -63.5t-12.5 -59.5t-2 -33t2 -32.5t12.5 -59.5t28.5 -64q-21 -14 -31 -32.5t-11 -51.5q25 0 62.5 16.5t61.5 16.5
q21 0 34 -11.5t13 -29.5t-13 -30t-34 -12q-24 0 -61.5 17t-62.5 17q0 -31 18.5 -74.5t18.5 -67.5t-12.5 -40.5t-34.5 -16.5t-34 16t-12 41q0 23 18.5 68t18.5 74q-25 0 -64 -17t-61 -17q-21 0 -34.5 12t-13.5 30q0 19 13 30.5t35 11.5t61 -17t64 -17q-2 34 -11 50.5
t-31 33.5q17 25 27.5 64t12.5 59.5t2 32.5t-2 32.5t-12.5 59.5t-28.5 64q21 14 31 32.5t11 51.5q-25 0 -62.5 -16.5t-61.5 -16.5q-20 0 -34 12t-14 29q0 18 13.5 30t34.5 12q24 0 61.5 -17t62.5 -17q0 31 -18.5 74.5t-18.5 67.5t13 40.5t34 16.5t33.5 -16t12.5 -41
q0 -23 -18.5 -68t-18.5 -74z" />
    <glyph glyph-name="bullet" unicode="&#x2022;" horiz-adv-x="350" 
d="M64 331q0 46 32.5 78t78.5 32q45 0 77.5 -32t32.5 -78t-32.5 -78t-77.5 -32q-46 0 -78.5 32t-32.5 78z" />
    <glyph glyph-name="ellipsis" unicode="&#x2026;" horiz-adv-x="1000" 
d="M165 -15q-21 0 -35.5 14.5t-14.5 36.5q0 21 14.5 35.5t35.5 14.5q22 0 36.5 -14.5t14.5 -35.5q0 -22 -14.5 -36.5t-36.5 -14.5zM501 -15q-20 0 -35.5 15t-15.5 36t15 35.5t36 14.5t35.5 -14t14.5 -35t-14.5 -36.5t-35.5 -15.5zM835 -15q-21 0 -36 15.5t-15 36.5
q0 20 15.5 34.5t35.5 14.5q21 0 35.5 -15t14.5 -36t-15 -35.5t-35 -14.5z" />
    <glyph glyph-name="perthousand" unicode="&#x2030;" horiz-adv-x="1005" 
d="M170 676q60 0 97.5 -50t37.5 -129t-40 -129t-95 -50q-56 0 -95.5 50.5t-39.5 128.5q0 74 39 126.5t96 52.5zM171 655q-70 0 -70 -159q0 -157 68 -157q70 0 70 159q0 157 -68 157zM502 344q60 0 97.5 -50t37.5 -129t-40 -129t-95 -50q-57 0 -96 50.5t-39 128.5
q0 73 39 126t96 53zM503 323q-70 0 -70 -159q0 -157 68 -157q70 0 70 159q0 157 -68 157zM831 344q59 0 97 -50t38 -129q0 -78 -39.5 -128.5t-95.5 -50.5q-57 0 -96 50.5t-39 128.5q0 74 39 126.5t96 52.5zM832 323q-70 0 -70 -159q0 -157 68 -157q70 0 70 159
q0 157 -68 157zM593 677l-473 -692h-35l473 692h35z" />
    <glyph glyph-name="guilsinglleft" unicode="&#x2039;" horiz-adv-x="333" 
d="M272 -4h-21l-186 230l186 230h21l-125 -230z" />
    <glyph glyph-name="guilsinglright" unicode="&#x203a;" horiz-adv-x="333" 
d="M60 456h21l187 -230l-187 -230h-21l126 230z" />
    <glyph glyph-name="fraction" unicode="&#x2044;" horiz-adv-x="167" 
d="M330 677l-457 -703h-37l457 703h37z" />
    <glyph glyph-name="Euro" unicode="&#x20ac;" 
d="M424 394l-9 -30h-288l-1 -49h273l-9 -31h-264q3 -115 46.5 -187.5t117.5 -72.5q45 0 81 18.5t54.5 39t44.5 57.5l12 -10q-44 -70 -90.5 -105t-120.5 -35q-99 0 -159 88t-65 207h-60l11 31h47q0 21 2 49h-58l9 30h52q10 74 40.5 136t86.5 104t127 42q83 0 166 -43v-146
h-17q-5 78 -43 120.5t-106 42.5q-57 0 -97 -40t-57.5 -95t-20.5 -121h295z" />
    <glyph glyph-name="trademark" unicode="&#x2122;" horiz-adv-x="984" 
d="M26 662h350l10 -99h-14q-8 47 -30.5 60.5t-79.5 13.5h-27v-280q0 -48 10.5 -61.5t47.5 -13.5v-14h-183v14q37 0 47.5 13t10.5 62v280h-28q-57 0 -79.5 -13t-30.5 -61h-14zM551 662l141 -298l137 298h123v-15q-33 0 -45.5 -16t-12.5 -59v-215q0 -48 11 -61.5t47 -13.5v-14
h-183v14q37 0 47.5 13t10.5 62v233h-2l-149 -322h-13l-154 327h-2v-239q0 -44 11.5 -59t46.5 -15v-14h-143v14q37 0 47.5 13.5t10.5 60.5v216q0 44 -9 59.5t-49 15.5v15h129z" />
    <glyph glyph-name="minus" unicode="&#x2212;" horiz-adv-x="564" 
d="M545 315h-525v33h525v-33z" />
    <glyph glyph-name="apple" unicode="&#xf8ff;" horiz-adv-x="760" 
d="M508 457v-241q0 -50 9.5 -64t41.5 -14v-14h-169v14q34 0 45.5 8.5t11.5 31.5v146h-37l-141 -200h-101v14q22 0 37 12t37 44l97 134q-46 8 -77.5 37.5t-31.5 73.5q0 47 40 77.5t112 30.5h172v-14q-27 0 -36.5 -14.5t-9.5 -61.5zM438 343h9v180q-17 6 -42 6q-52 0 -80 -27
t-28 -71q0 -47 35 -67.5t106 -20.5zM34 331q0 144 101 245t245 101t245 -101t101 -245q0 -143 -101 -244.5t-245 -101.5q-143 0 -244.5 101t-101.5 245zM60 331q0 -139 94.5 -230.5t225.5 -91.5q134 0 226 93t92 229t-92.5 229t-225.5 93t-226.5 -93t-93.5 -229z" />
    <glyph glyph-name="zero.onum" horiz-adv-x="532" 
d="M266 492q92 0 151.5 -72t59.5 -178q0 -104 -56.5 -180t-153.5 -76q-95 0 -154 72t-59 183q0 115 62 183t150 68zM268 443q-67 0 -109 -56t-42 -148q0 -95 43 -150t105 -55q66 0 108 56t42 154q0 88 -43 143.5t-104 55.5z" />
    <glyph glyph-name="one.onum" horiz-adv-x="378" 
d="M69 479h239v-15q-44 0 -65 -17.5t-21 -69.5v-288q0 -27 5.5 -43t20 -22.5t25 -7.5t33.5 -1v-15h-238v15q45 0 64.5 13.5t19.5 61.5v302q0 45 -19.5 58.5t-63.5 13.5v15z" />
    <glyph glyph-name="two.onum" horiz-adv-x="489" 
d="M141 62h161q43 0 69.5 13t50.5 41h17l-42 -116h-353v17q170 148 197 173q76 76 76 135q0 49 -30 79.5t-78 30.5q-81 0 -126 -85l-13 4q7 20 18 39.5t31 44t53 39.5t74 15q71 0 107 -42.5t36 -96.5q0 -58 -58 -121.5t-190 -167.5v-2z" />
    <glyph glyph-name="three.onum" horiz-adv-x="514" 
d="M149 142v16q65 10 112 50.5t47 101.5q0 59 -31 92t-84 33q-81 0 -134 -92l-14 8q23 62 70.5 101t110.5 39q43 0 74 -14.5t46.5 -37t22.5 -44t7 -41.5q0 -46 -28 -88t-68 -70q130 -47 130 -163q0 -95 -65 -163.5t-195 -68.5q-24 0 -45.5 3.5t-41 15.5t-19.5 32
q0 15 11.5 24.5t28.5 9.5q22 0 59 -24t68 -24q53 0 95 41t42 103q0 68 -49.5 114t-149.5 46z" />
    <glyph glyph-name="four.onum" horiz-adv-x="498" 
d="M370 493v-431h94v-62h-94v-198h-70v198h-273v45l309 448h34zM300 62v314h-2l-213 -314h215z" />
    <glyph glyph-name="five.onum" horiz-adv-x="514" 
d="M432 480l-31 -70h-206l-54 -111q112 -13 192.5 -77.5t80.5 -168.5q0 -102 -76.5 -175.5t-181.5 -73.5q-49 0 -79 17.5t-30 44.5q0 14 10.5 24.5t25.5 10.5q21 0 57 -25t70 -25q62 0 106 44t44 111q0 95 -80 158t-211 63l124 253h239z" />
    <glyph glyph-name="six.onum" horiz-adv-x="514" 
d="M455 676v-16q-111 -4 -192.5 -90t-108.5 -206q72 54 146 54q76 0 119.5 -58t43.5 -139q0 -94 -56 -164.5t-146 -70.5q-67 0 -114.5 44t-67.5 104.5t-20 126.5q0 105 49.5 200.5t136.5 155t189 59.5h21zM387 172q0 99 -35.5 152.5t-97.5 53.5q-44 0 -106 -44
q-8 -54 -8 -101q0 -90 36.5 -155.5t91.5 -65.5q56 0 87.5 49t31.5 111z" />
    <glyph glyph-name="seven.onum" horiz-adv-x="507" 
d="M109 479h355v-20l-220 -656l-43 11l201 595h-203q-51 0 -79.5 -17t-55.5 -64l-15 6z" />
    <glyph glyph-name="eight.onum" horiz-adv-x="514" 
d="M207 336q-68 56 -87 79q-39 48 -39 105q0 70 50.5 113t122.5 43q83 0 130 -43t47 -101q0 -27 -12.5 -52.5t-36 -47t-44 -36t-48.5 -31.5q83 -63 109 -94q46 -53 46 -113q0 -76 -52.5 -124t-135.5 -48q-89 0 -137 47.5t-48 114.5q0 94 135 188zM271 380q27 24 38.5 35
t29.5 32.5t25 43.5t7 48q0 50 -31.5 80.5t-84.5 30.5q-48 0 -81 -28.5t-33 -70.5q0 -22 7 -41.5t25 -40t27.5 -30t38 -33t32.5 -26.5zM226 321q-38 -30 -63.5 -76t-25.5 -91q0 -63 33.5 -102.5t93.5 -39.5q53 0 86.5 29t33.5 76q0 43 -35 88.5t-123 115.5z" />
    <glyph glyph-name="nine.onum" horiz-adv-x="514" 
d="M60 -182v16q110 0 188.5 85t108.5 203q-65 -47 -142 -47t-119.5 58t-42.5 138q0 95 54.5 166t145.5 71q65 0 112.5 -43.5t68.5 -104.5t21 -129q0 -96 -45 -189.5t-134 -158.5t-200 -65h-16zM365 156q9 59 9 102q0 46 -12.5 95t-43.5 89t-73 40q-57 0 -87 -49.5
t-30 -113.5q0 -102 33.5 -153.5t91.5 -51.5q26 0 59.5 12t52.5 30z" />
    <glyph glyph-name="zero.tnum" 
d="M250 676q88 0 147 -92.5t59 -252.5q0 -156 -59.5 -250.5t-146.5 -94.5q-89 0 -147.5 91t-58.5 250t57.5 254t148.5 95zM250 653q-126 0 -126 -353q0 -148 34.5 -219.5t91.5 -71.5q126 0 126 355q0 142 -34 215.5t-92 73.5z" />
    <glyph glyph-name="one.tnum" 
d="M120 598l158 78h13v-568q0 -64 11.5 -78.5t71.5 -14.5v-15h-242v15q57 1 71 16t14 72v409q0 52 -8.5 69.5t-29.5 17.5q-27 0 -53 -14z" />
    <glyph glyph-name="two.tnum" 
d="M450 122l-44 -122h-382v18q196 193 258.5 277t62.5 162q0 70 -36.5 113t-98.5 43q-54 0 -96 -35.5t-57 -88.5h-16q13 83 62 135t128 52q76 0 125.5 -49t49.5 -126q0 -124 -137 -271l-151 -161h205q88 0 112 53h15z" />
    <glyph glyph-name="three.tnum" 
d="M160 327v16q65 10 112 50.5t47 101.5q0 59 -31 92t-84 33q-81 0 -134 -92l-14 8q23 62 70.5 101t110.5 39q43 0 74 -14.5t46.5 -37t22.5 -44t7 -41.5q0 -46 -28 -88t-68 -70q130 -47 130 -163q0 -95 -65 -163.5t-195 -68.5q-24 0 -45.5 3.5t-41 15.5t-19.5 32
q0 15 11.5 24.5t28.5 9.5q22 0 59 -24t68 -24q53 0 95 41t42 103q0 68 -49.5 114t-149.5 46z" />
    <glyph glyph-name="four.tnum" 
d="M465 240v-62h-93v-178h-73v178h-284v55l308 442h49v-435h93zM299 240v343h-2l-234 -343h236z" />
    <glyph glyph-name="five.tnum" 
d="M436 662l-31 -70h-206l-54 -111q112 -13 192.5 -77.5t80.5 -168.5q0 -102 -76.5 -175.5t-181.5 -73.5q-49 0 -79 17.5t-30 44.5q0 14 10.5 24.5t25.5 10.5q21 0 57 -25t70 -25q62 0 106 44t44 111q0 95 -80 158t-211 63l124 253h239z" />
    <glyph glyph-name="six.tnum" 
d="M448 676v-16q-111 -4 -192.5 -90t-108.5 -206q72 54 146 54q76 0 119.5 -58t43.5 -139q0 -94 -56 -164.5t-146 -70.5q-67 0 -114.5 44t-67.5 104.5t-20 126.5q0 105 49.5 200.5t136.5 155t189 59.5h21zM380 172q0 99 -35.5 152.5t-97.5 53.5q-44 0 -106 -44
q-8 -54 -8 -101q0 -90 36.5 -155.5t91.5 -65.5q56 0 87.5 49t31.5 111z" />
    <glyph glyph-name="seven.tnum" 
d="M100 662h355v-20l-220 -657h-41l202 607h-205q-53 0 -81 -17t-55 -64l-15 6z" />
    <glyph glyph-name="eight.tnum" 
d="M200 336q-68 56 -87 79q-39 48 -39 105q0 70 50.5 113t122.5 43q83 0 130 -43t47 -101q0 -27 -12.5 -52.5t-36 -47t-44 -36t-48.5 -31.5q83 -63 109 -94q46 -53 46 -113q0 -76 -52.5 -124t-135.5 -48q-89 0 -137 47.5t-48 114.5q0 94 135 188zM264 380q27 24 38.5 35
t29.5 32.5t25 43.5t7 48q0 50 -31.5 80.5t-84.5 30.5q-48 0 -81 -28.5t-33 -70.5q0 -22 7 -41.5t25 -40t27.5 -30t38 -33t32.5 -26.5zM219 321q-38 -30 -63.5 -76t-25.5 -91q0 -63 33.5 -102.5t93.5 -39.5q53 0 86.5 29t33.5 76q0 43 -35 88.5t-123 115.5z" />
    <glyph glyph-name="nine.tnum" 
d="M53 -14v16q110 0 188.5 85t108.5 203q-65 -47 -142 -47q-76 0 -119 58t-43 138q0 95 54.5 166t145.5 71q65 0 112.5 -43.5t68.5 -104.5t21 -129q0 -96 -45 -189.5t-134 -158.5t-200 -65h-16zM358 324q9 59 9 102q0 46 -12.5 95t-43.5 89t-73 40q-57 0 -87 -49.5
t-30 -113.5q0 -102 33.5 -153.5t91.5 -51.5q26 0 59.5 12t52.5 30z" />
    </font>
</defs>
</svg>
